Rubik-Bold.ufo
<glyph name="equal" format="1">
  <advance width="563"/>
  <unicode hex="003D"/>
  <outline>
    <contour>
      <point x="484" y="340" type="line" smooth="yes"/>
      <point x="499" y="340"/>
      <point x="511" y="352"/>
      <point x="511" y="367" type="curve" smooth="yes"/>
      <point x="511" y="483" type="line" smooth="yes"/>
      <point x="511" y="498"/>
      <point x="499" y="510"/>
      <point x="484" y="510" type="curve" smooth="yes"/>
      <point x="79" y="510" type="line" smooth="yes"/>
      <point x="64" y="510"/>
      <point x="52" y="498"/>
      <point x="52" y="483" type="curve" smooth="yes"/>
      <point x="52" y="367" type="line" smooth="yes"/>
      <point x="52" y="352"/>
      <point x="64" y="340"/>
      <point x="79" y="340" type="curve" smooth="yes"/>
    </contour>
    <contour>
      <point x="484" y="90" type="line" smooth="yes"/>
      <point x="499" y="90"/>
      <point x="511" y="102"/>
      <point x="511" y="117" type="curve" smooth="yes"/>
      <point x="511" y="233" type="line" smooth="yes"/>
      <point x="511" y="248"/>
      <point x="499" y="260"/>
      <point x="484" y="260" type="curve" smooth="yes"/>
      <point x="79" y="260" type="line" smooth="yes"/>
      <point x="64" y="260"/>
      <point x="52" y="248"/>
      <point x="52" y="233" type="curve" smooth="yes"/>
      <point x="52" y="117" type="line" smooth="yes"/>
      <point x="52" y="102"/>
      <point x="64" y="90"/>
      <point x="79" y="90" type="curve" smooth="yes"/>
    </contour>
  </outline>
</glyph>
<glyph name="A" format="1">
  <advance width="755"/>
  <unicode hex="0041"/>
  <outline>
    <contour>
      <point x="207" y="0" type="line" smooth="yes"/>
      <point x="233" y="0"/>
      <point x="242" y="14"/>
      <point x="246" y="25" type="curve" smooth="yes"/>
      <point x="270" y="91" type="line"/>
      <point x="485" y="91" type="line"/>
      <point x="509" y="25" type="line" smooth="yes"/>
      <point x="513" y="14"/>
      <point x="522" y="0"/>
      <point x="548" y="0" type="curve" smooth="yes"/>
      <point x="733" y="0" type="line" smooth="yes"/>
      <point x="745" y="0"/>
      <point x="755" y="10"/>
      <point x="755" y="22" type="curve" smooth="yes"/>
      <point x="755" y="24"/>
      <point x="755" y="26"/>
      <point x="754" y="29" type="curve" smooth="yes"/>
      <point x="531" y="667" type="line"/>
      <point x="527" y="682"/>
      <point x="513" y="700"/>
      <point x="486" y="700" type="curve" smooth="yes"/>
      <point x="269" y="700" type="line" smooth="yes"/>
      <point x="242" y="700"/>
      <point x="228" y="682"/>
      <point x="224" y="667" type="curve"/>
      <point x="1" y="29" type="line" smooth="yes"/>
      <point x="0" y="26"/>
      <point x="0" y="24"/>
      <point x="0" y="22" type="curve" smooth="yes"/>
      <point x="0" y="10"/>
      <point x="10" y="0"/>
      <point x="22" y="0" type="curve" smooth="yes"/>
    </contour>
    <contour>
      <point x="377" y="472" type="line"/>
      <point x="434" y="286" type="line"/>
      <point x="321" y="286" type="line"/>
    </contour>
  </outline>
</glyph>
<glyph name="underscore" format="1">
  <advance width="725"/>
  <unicode hex="005F"/>
  <outline>
    <contour>
      <point x="665" y="-98" type="line" smooth="yes"/>
      <point x="680" y="-98"/>
      <point x="692" y="-86"/>
      <point x="692" y="-71" type="curve" smooth="yes"/>
      <point x="692" y="71" type="line" smooth="yes"/>
      <point x="692" y="86"/>
      <point x="680" y="98"/>
      <point x="665" y="98" type="curve" smooth="yes"/>
      <point x="60" y="98" type="line" smooth="yes"/>
      <point x="45" y="98"/>
      <point x="33" y="86"/>
      <point x="33" y="71" type="curve" smooth="yes"/>
      <point x="33" y="-71" type="line" smooth="yes"/>
      <point x="33" y="-86"/>
      <point x="45" y="-98"/>
      <point x="60" y="-98" type="curve" smooth="yes"/>
    </contour>
  </outline>
</glyph>
<glyph name="l" format="1">
  <advance width="323"/>
  <unicode hex="006C"/>
  <outline>
    <contour>
      <point x="251" y="0" type="line" smooth="yes"/>
      <point x="266" y="0"/>
      <point x="278" y="12"/>
      <point x="278" y="27" type="curve" smooth="yes"/>
      <point x="278" y="683" type="line" smooth="yes"/>
      <point x="278" y="698"/>
      <point x="266" y="710"/>
      <point x="251" y="710" type="curve" smooth="yes"/>
      <point x="72" y="710" type="line" smooth="yes"/>
      <point x="57" y="710"/>
      <point x="45" y="698"/>
      <point x="45" y="683" type="curve" smooth="yes"/>
      <point x="45" y="27" type="line" smooth="yes"/>
      <point x="45" y="12"/>
      <point x="57" y="0"/>
      <point x="72" y="0" type="curve" smooth="yes"/>
    </contour>
  </outline>
</glyph>
<glyph name="braceleft" format="1">
  <advance width="474"/>
  <unicode hex="007B"/>
  <outline>
    <contour>
      <point x="429" y="-158" type="line"/>
      <point x="441" y="-158"/>
      <point x="451" y="-148"/>
      <point x="451" y="-136" type="curve" smooth="yes"/>
      <point x="451" y="1" type="line" smooth="yes"/>
      <point x="451" y="13"/>
      <point x="441" y="22"/>
      <point x="432" y="23" type="curve"/>
      <point x="427" y="24" type="line"/>
      <point x="357" y="33"/>
      <point x="304" y="63"/>
      <point x="304" y="142" type="curve" smooth="yes"/>
      <point x="304" y="222"/>
      <point x="268" y="296"/>
      <point x="231" y="309" type="curve"/>
      <point x="268" y="322"/>
      <point x="304" y="388"/>
      <point x="304" y="476" type="curve" smooth="yes"/>
      <point x="304" y="556"/>
      <point x="357" y="585"/>
      <point x="429" y="595" type="curve"/>
      <point x="432" y="595" type="line"/>
      <point x="441" y="596"/>
      <point x="451" y="605"/>
      <point x="451" y="617" type="curve" smooth="yes"/>
      <point x="451" y="754" type="line" smooth="yes"/>
      <point x="451" y="766"/>
      <point x="441" y="776"/>
      <point x="429" y="776" type="curve"/>
      <point x="422" y="776" type="line"/>
      <point x="267" y="773"/>
      <point x="94" y="687"/>
      <point x="94" y="487" type="curve" smooth="yes"/>
      <point x="94" y="444"/>
      <point x="79" y="400"/>
      <point x="40" y="384" type="curve" smooth="yes"/>
      <point x="23" y="377" type="line" smooth="yes"/>
      <point x="3" y="368"/>
      <point x="-6" y="356"/>
      <point x="-6" y="335" type="curve" smooth="yes"/>
      <point x="-6" y="283" type="line" smooth="yes"/>
      <point x="-6" y="262"/>
      <point x="3" y="250"/>
      <point x="23" y="241" type="curve" smooth="yes"/>
      <point x="40" y="234" type="line" smooth="yes"/>
      <point x="79" y="218"/>
      <point x="94" y="174"/>
      <point x="94" y="131" type="curve" smooth="yes"/>
      <point x="94" y="-70"/>
      <point x="268" y="-156"/>
      <point x="424" y="-158" type="curve"/>
    </contour>
  </outline>
</glyph>
<glyph name="plusminus" format="1">
  <advance width="576"/>
  <unicode hex="00B1"/>
  <outline>
    <contour>
      <point x="350" y="186" type="line" smooth="yes"/>
      <point x="365" y="186"/>
      <point x="377" y="198"/>
      <point x="377" y="213" type="curve" smooth="yes"/>
      <point x="377" y="354" type="line"/>
      <point x="510" y="354" type="line" smooth="yes"/>
      <point x="525" y="354"/>
      <point x="537" y="366"/>
      <point x="537" y="381" type="curve" smooth="yes"/>
      <point x="537" y="490" type="line" smooth="yes"/>
      <point x="537" y="505"/>
      <point x="525" y="517"/>
      <point x="510" y="517" type="curve" smooth="yes"/>
      <point x="377" y="517" type="line"/>
      <point x="377" y="653" type="line" smooth="yes"/>
      <point x="377" y="668"/>
      <point x="365" y="680"/>
      <point x="350" y="680" type="curve" smooth="yes"/>
      <point x="228" y="680" type="line" smooth="yes"/>
      <point x="213" y="680"/>
      <point x="201" y="668"/>
      <point x="201" y="653" type="curve" smooth="yes"/>
      <point x="201" y="517" type="line"/>
      <point x="66" y="517" type="line" smooth="yes"/>
      <point x="51" y="517"/>
      <point x="39" y="505"/>
      <point x="39" y="490" type="curve" smooth="yes"/>
      <point x="39" y="381" type="line" smooth="yes"/>
      <point x="39" y="366"/>
      <point x="51" y="354"/>
      <point x="66" y="354" type="curve" smooth="yes"/>
      <point x="201" y="354" type="line"/>
      <point x="201" y="213" type="line" smooth="yes"/>
      <point x="201" y="198"/>
      <point x="213" y="186"/>
      <point x="228" y="186" type="curve" smooth="yes"/>
    </contour>
    <contour>
      <point x="500" y="0" type="line" smooth="yes"/>
      <point x="515" y="0"/>
      <point x="527" y="12"/>
      <point x="527" y="27" type="curve" smooth="yes"/>
      <point x="527" y="136" type="line" smooth="yes"/>
      <point x="527" y="151"/>
      <point x="515" y="163"/>
      <point x="500" y="163" type="curve" smooth="yes"/>
      <point x="76" y="163" type="line" smooth="yes"/>
      <point x="61" y="163"/>
      <point x="49" y="151"/>
      <point x="49" y="136" type="curve" smooth="yes"/>
      <point x="49" y="27" type="line" smooth="yes"/>
      <point x="49" y="12"/>
      <point x="61" y="0"/>
      <point x="76" y="0" type="curve" smooth="yes"/>
    </contour>
  </outline>
</glyph>
<glyph name="periodcentered" format="1">
  <advance width="330"/>
  <unicode hex="00B7"/>
  <outline>
    <contour>
      <point x="242" y="210"/>
      <point x="305" y="273"/>
      <point x="305" y="350" type="curve" smooth="yes"/>
      <point x="305" y="427"/>
      <point x="242" y="490"/>
      <point x="165" y="490" type="curve" smooth="yes"/>
      <point x="88" y="490"/>
      <point x="25" y="427"/>
      <point x="25" y="350" type="curve" smooth="yes"/>
      <point x="25" y="273"/>
      <point x="88" y="210"/>
      <point x="165" y="210" type="curve" smooth="yes"/>
    </contour>
  </outline>
</glyph>
<glyph name="uni00B8" format="1">
  <advance width="282"/>
  <unicode hex="00B8"/>
  <outline>
    <component base="cedilla"/>
    <contour>
      <point x="113" y="0" type="move" name="_bottom"/>
    </contour>
    <contour>
      <point x="141" y="-220" type="move" name="bottom"/>
    </contour>
  </outline>
</glyph>
<glyph name="eogonek" format="1">
  <advance width="623"/>
  <unicode hex="0119"/>
  <outline>
    <contour>
      <point x="382" y="-220" type="line"/>
      <point x="397" y="-220"/>
      <point x="409" y="-208"/>
      <point x="409" y="-193" type="curve"/>
      <point x="409" y="-125" type="line"/>
      <point x="409" y="-110"/>
      <point x="397" y="-98"/>
      <point x="382" y="-98" type="curve"/>
      <point x="372" y="-98" type="line"/>
      <point x="333" y="-98"/>
      <point x="322" y="-70"/>
      <point x="322" y="-49" type="curve" smooth="yes"/>
      <point x="322" y="-28"/>
      <point x="338" y="-12"/>
      <point x="380" y="-5" type="curve"/>
      <point x="519" y="15"/>
      <point x="582" y="100"/>
      <point x="585" y="145" type="curve" smooth="yes"/>
      <point x="586" y="158"/>
      <point x="576" y="167"/>
      <point x="563" y="167" type="curve"/>
      <point x="374" y="167" type="line"/>
      <point x="358" y="167"/>
      <point x="353" y="165"/>
      <point x="341" y="153" type="curve" smooth="yes"/>
      <point x="330" y="142"/>
      <point x="324" y="135"/>
      <point x="312" y="135" type="curve" smooth="yes"/>
      <point x="283" y="135"/>
      <point x="273" y="156"/>
      <point x="273" y="196" type="curve"/>
      <point x="273" y="201" type="line"/>
      <point x="571" y="201" type="line"/>
      <point x="586" y="201"/>
      <point x="598" y="213"/>
      <point x="598" y="228" type="curve"/>
      <point x="598" y="258" type="line"/>
      <point x="598" y="405"/>
      <point x="509" y="530"/>
      <point x="313" y="530" type="curve" smooth="yes"/>
      <point x="142" y="530"/>
      <point x="30" y="437"/>
      <point x="28" y="264" type="curve" smooth="yes"/>
      <point x="28" y="262"/>
      <point x="28" y="261"/>
      <point x="28" y="259" type="curve" smooth="yes"/>
      <point x="28" y="116"/>
      <point x="93" y="34"/>
      <point x="202" y="3" type="curve"/>
      <point x="198" y="-13"/>
      <point x="196" y="-30"/>
      <point x="196" y="-49" type="curve" smooth="yes"/>
      <point x="196" y="-144"/>
      <point x="247" y="-220"/>
      <point x="368" y="-220" type="curve" smooth="yes"/>
    </contour>
    <contour>
      <point x="273" y="327" type="line"/>
      <point x="273" y="371"/>
      <point x="287" y="390"/>
      <point x="313" y="390" type="curve" smooth="yes"/>
      <point x="339" y="390"/>
      <point x="353" y="371"/>
      <point x="353" y="327" type="curve"/>
      <point x="353" y="326" type="line"/>
      <point x="273" y="326" type="line"/>
    </contour>
  </outline>
</glyph>
<glyph name="Hbar" format="1">
  <advance width="772"/>
  <unicode hex="0126"/>
  <outline>
    <contour>
      <point x="682" y="521" type="line" smooth="yes"/>
      <point x="697" y="521"/>
      <point x="709" y="533"/>
      <point x="709" y="548" type="curve" smooth="yes"/>
      <point x="709" y="616" type="line" smooth="yes"/>
      <point x="709" y="631"/>
      <point x="697" y="643"/>
      <point x="682" y="643" type="curve" smooth="yes"/>
      <point x="88" y="643" type="line" smooth="yes"/>
      <point x="73" y="643"/>
      <point x="61" y="631"/>
      <point x="61" y="616" type="curve" smooth="yes"/>
      <point x="61" y="548" type="line" smooth="yes"/>
      <point x="61" y="533"/>
      <point x="73" y="521"/>
      <point x="88" y="521" type="curve" smooth="yes"/>
    </contour>
    <component base="H"/>
  </outline>
</glyph>
<glyph name="dotlessi" format="1">
  <advance width="323"/>
  <unicode hex="0131"/>
  <outline>
    <contour>
      <point x="251" y="0" type="line"/>
      <point x="266" y="0"/>
      <point x="278" y="12"/>
      <point x="278" y="27" type="curve" smooth="yes"/>
      <point x="278" y="493" type="line" smooth="yes"/>
      <point x="278" y="508"/>
      <point x="266" y="520"/>
      <point x="251" y="520" type="curve" smooth="yes"/>
      <point x="72" y="520" type="line" smooth="yes"/>
      <point x="57" y="520"/>
      <point x="45" y="508"/>
      <point x="45" y="493" type="curve" smooth="yes"/>
      <point x="45" y="27" type="line" smooth="yes"/>
      <point x="45" y="12"/>
      <point x="57" y="0"/>
      <point x="72" y="0" type="curve" smooth="yes"/>
    </contour>
    <contour>
      <point x="242" y="10" type="move" name="ogonek"/>
    </contour>
    <contour>
      <point x="162" y="0" type="move" name="bottom"/>
    </contour>
    <contour>
      <point x="162" y="520" type="move" name="top"/>
    </contour>
  </outline>
</glyph>
<glyph name="uni02C6" format="1">
  <advance width="528"/>
  <unicode hex="02C6"/>
  <outline>
    <component base="circumflex"/>
    <contour>
      <point x="264" y="765" type="move" name="top"/>
    </contour>
    <contour>
      <point x="264" y="520" type="move" name="_top"/>
    </contour>
  </outline>
</glyph>
<glyph name="uni02DB" format="1">
  <advance width="303"/>
  <unicode hex="02DB"/>
  <outline>
    <component base="ogonek"/>
    <contour>
      <point x="223" y="10" type="move" name="_ogonek"/>
    </contour>
  </outline>
</glyph>
<glyph name="acutecomb" format="1">
  <advance width="447"/>
  <unicode hex="0301"/>
  <outline>
    <component base="acute"/>
    <contour>
      <point x="224" y="765" type="move" name="top"/>
    </contour>
    <contour>
      <point x="124" y="520" type="move" name="_top"/>
    </contour>
  </outline>
</glyph>
<glyph name="uni0326" format="1">
  <advance width="326"/>
  <unicode hex="0326"/>
  <outline>
    <contour>
      <point x="177" y="-250" type="line" smooth="yes"/>
      <point x="203" y="-250"/>
      <point x="215" y="-231"/>
      <point x="220" y="-218" type="curve" smooth="yes"/>
      <point x="275" y="-79" type="line" smooth="yes"/>
      <point x="276" y="-76"/>
      <point x="276" y="-74"/>
      <point x="276" y="-72" type="curve" smooth="yes"/>
      <point x="276" y="-60"/>
      <point x="266" y="-50"/>
      <point x="254" y="-50" type="curve" smooth="yes"/>
      <point x="114" y="-50" type="line" smooth="yes"/>
      <point x="87" y="-50"/>
      <point x="74" y="-71"/>
      <point x="71" y="-89" type="curve"/>
      <point x="50" y="-228" type="line"/>
      <point x="50" y="-240"/>
      <point x="60" y="-250"/>
      <point x="72" y="-250" type="curve" smooth="yes"/>
    </contour>
    <contour>
      <point x="163" y="0" type="move" name="_bottom"/>
    </contour>
    <contour>
      <point x="163" y="-250" type="move" name="bottom"/>
    </contour>
  </outline>
</glyph>
<glyph name="uni0402" format="1">
  <advance width="821"/>
  <unicode hex="0402"/>
  <outline>
    <contour>
      <point x="380" y="0" type="line" smooth="yes"/>
      <point x="395" y="0"/>
      <point x="407" y="12"/>
      <point x="407" y="27" type="curve" smooth="yes"/>
      <point x="407" y="228" type="line"/>
      <point x="407" y="244"/>
      <point x="423" y="259"/>
      <point x="475" y="259" type="curve" smooth="yes"/>
      <point x="522" y="259"/>
      <point x="542" y="248"/>
      <point x="542" y="222" type="curve" smooth="yes"/>
      <point x="542" y="219" type="line" smooth="yes"/>
      <point x="542" y="195"/>
      <point x="528" y="180"/>
      <point x="485" y="180" type="curve" smooth="yes"/>
      <point x="465" y="180" type="line" smooth="yes"/>
      <point x="450" y="180"/>
      <point x="438" y="168"/>
      <point x="438" y="153" type="curve" smooth="yes"/>
      <point x="438" y="27" type="line" smooth="yes"/>
      <point x="438" y="12"/>
      <point x="450" y="0"/>
      <point x="465" y="0" type="curve" smooth="yes"/>
      <point x="485" y="0" type="line" smooth="yes"/>
      <point x="674" y="0"/>
      <point x="792" y="63"/>
      <point x="792" y="218" type="curve" smooth="yes"/>
      <point x="792" y="243" type="line" smooth="yes"/>
      <point x="792" y="407"/>
      <point x="713" y="487"/>
      <point x="539" y="487" type="curve" smooth="yes"/>
      <point x="488" y="487"/>
      <point x="436" y="472"/>
      <point x="407" y="457" type="curve"/>
      <point x="407" y="523" type="line"/>
      <point x="614" y="523" type="line" smooth="yes"/>
      <point x="627" y="523"/>
      <point x="637" y="533"/>
      <point x="637" y="546" type="curve" smooth="yes"/>
      <point x="637" y="677" type="line" smooth="yes"/>
      <point x="637" y="690"/>
      <point x="627" y="700"/>
      <point x="614" y="700" type="curve" smooth="yes"/>
      <point x="40" y="700" type="line" smooth="yes"/>
      <point x="27" y="700"/>
      <point x="17" y="690"/>
      <point x="17" y="677" type="curve" smooth="yes"/>
      <point x="17" y="546" type="line" smooth="yes"/>
      <point x="17" y="533"/>
      <point x="27" y="523"/>
      <point x="40" y="523" type="curve" smooth="yes"/>
      <point x="157" y="523" type="line"/>
      <point x="157" y="27" type="line" smooth="yes"/>
      <point x="157" y="12"/>
      <point x="169" y="0"/>
      <point x="184" y="0" type="curve" smooth="yes"/>
    </contour>
  </outline>
</glyph>
<glyph name="uni0404" format="1">
  <advance width="728"/>
  <unicode hex="0404"/>
  <outline>
    <contour>
      <point x="530" y="-10"/>
      <point x="674" y="52"/>
      <point x="691" y="197" type="curve" smooth="yes"/>
      <point x="692" y="209"/>
      <point x="681" y="219"/>
      <point x="669" y="219" type="curve" smooth="yes"/>
      <point x="473" y="219" type="line" smooth="yes"/>
      <point x="457" y="219"/>
      <point x="451" y="215"/>
      <point x="439" y="203" type="curve" smooth="yes"/>
      <point x="426" y="190"/>
      <point x="407" y="183"/>
      <point x="372" y="183" type="curve" smooth="yes"/>
      <point x="321" y="183"/>
      <point x="291" y="205"/>
      <point x="291" y="250" type="curve"/>
      <point x="291" y="260" type="line"/>
      <point x="444" y="260" type="line" smooth="yes"/>
      <point x="459" y="260"/>
      <point x="471" y="274"/>
      <point x="471" y="289" type="curve" smooth="yes"/>
      <point x="471" y="409" type="line" smooth="yes"/>
      <point x="471" y="424"/>
      <point x="459" y="438"/>
      <point x="444" y="438" type="curve" smooth="yes"/>
      <point x="291" y="438" type="line"/>
      <point x="291" y="448" type="line"/>
      <point x="291" y="496"/>
      <point x="320" y="515"/>
      <point x="372" y="515" type="curve" smooth="yes"/>
      <point x="407" y="515"/>
      <point x="427" y="504"/>
      <point x="434" y="495" type="curve" smooth="yes"/>
      <point x="443" y="483"/>
      <point x="449" y="479"/>
      <point x="466" y="479" type="curve" smooth="yes"/>
      <point x="664" y="479" type="line" smooth="yes"/>
      <point x="676" y="479"/>
      <point x="687" y="489"/>
      <point x="686" y="501" type="curve" smooth="yes"/>
      <point x="669" y="644"/>
      <point x="538" y="710"/>
      <point x="366" y="710" type="curve" smooth="yes"/>
      <point x="170" y="710"/>
      <point x="39" y="618"/>
      <point x="31" y="439" type="curve" smooth="yes"/>
      <point x="30" y="419"/>
      <point x="30" y="280"/>
      <point x="31" y="261" type="curve" smooth="yes"/>
      <point x="39" y="77"/>
      <point x="165" y="-10"/>
      <point x="366" y="-10" type="curve" smooth="yes"/>
    </contour>
  </outline>
</glyph>
<glyph name="uni0409" format="1">
  <advance width="1141"/>
  <unicode hex="0409"/>
  <outline>
    <contour>
      <point x="323" y="0"/>
      <point x="359" y="127"/>
      <point x="359" y="449" type="curve" smooth="yes"/>
      <point x="359" y="480" type="line"/>
      <point x="491" y="480" type="line"/>
      <point x="491" y="27" type="line" smooth="yes"/>
      <point x="491" y="12"/>
      <point x="503" y="0"/>
      <point x="518" y="0" type="curve" smooth="yes"/>
      <point x="806" y="0" type="line" smooth="yes"/>
      <point x="998" y="0"/>
      <point x="1112" y="84"/>
      <point x="1112" y="245" type="curve" smooth="yes"/>
      <point x="1112" y="406"/>
      <point x="999" y="482"/>
      <point x="806" y="482" type="curve" smooth="yes"/>
      <point x="741" y="482" type="line"/>
      <point x="741" y="673" type="line" smooth="yes"/>
      <point x="741" y="688"/>
      <point x="729" y="700"/>
      <point x="714" y="700" type="curve" smooth="yes"/>
      <point x="146" y="700" type="line" smooth="yes"/>
      <point x="131" y="700"/>
      <point x="119" y="688"/>
      <point x="119" y="673" type="curve" smooth="yes"/>
      <point x="119" y="481" type="line" smooth="yes"/>
      <point x="119" y="357"/>
      <point x="113" y="225"/>
      <point x="45" y="212" type="curve" smooth="yes"/>
      <point x="29" y="209"/>
      <point x="18" y="200"/>
      <point x="18" y="185" type="curve" smooth="yes"/>
      <point x="18" y="27" type="line" smooth="yes"/>
      <point x="18" y="12"/>
      <point x="31" y="0"/>
      <point x="46" y="0" type="curve" smooth="yes"/>
    </contour>
    <contour>
      <point x="741" y="297" type="line"/>
      <point x="806" y="297" type="line" smooth="yes"/>
      <point x="830" y="297"/>
      <point x="852" y="279"/>
      <point x="852" y="243" type="curve" smooth="yes"/>
      <point x="852" y="212"/>
      <point x="838" y="186"/>
      <point x="806" y="186" type="curve" smooth="yes"/>
      <point x="741" y="186" type="line"/>
    </contour>
  </outline>
</glyph>
<glyph name="uni040A" format="1">
  <advance width="1117"/>
  <unicode hex="040A"/>
  <outline>
    <contour>
      <point x="278" y="0" type="line" smooth="yes"/>
      <point x="293" y="0"/>
      <point x="305" y="12"/>
      <point x="305" y="27" type="curve" smooth="yes"/>
      <point x="305" y="243" type="line"/>
      <point x="467" y="243" type="line"/>
      <point x="467" y="27" type="line" smooth="yes"/>
      <point x="467" y="12"/>
      <point x="479" y="0"/>
      <point x="494" y="0" type="curve" smooth="yes"/>
      <point x="782" y="0" type="line" smooth="yes"/>
      <point x="974" y="0"/>
      <point x="1088" y="84"/>
      <point x="1088" y="245" type="curve" smooth="yes"/>
      <point x="1088" y="406"/>
      <point x="975" y="482"/>
      <point x="782" y="482" type="curve" smooth="yes"/>
      <point x="717" y="482" type="line"/>
      <point x="717" y="673" type="line" smooth="yes"/>
      <point x="717" y="688"/>
      <point x="705" y="700"/>
      <point x="690" y="700" type="curve" smooth="yes"/>
      <point x="494" y="700" type="line" smooth="yes"/>
      <point x="479" y="700"/>
      <point x="467" y="688"/>
      <point x="467" y="673" type="curve" smooth="yes"/>
      <point x="467" y="463" type="line"/>
      <point x="305" y="463" type="line"/>
      <point x="305" y="673" type="line" smooth="yes"/>
      <point x="305" y="688"/>
      <point x="293" y="700"/>
      <point x="278" y="700" type="curve" smooth="yes"/>
      <point x="82" y="700" type="line" smooth="yes"/>
      <point x="67" y="700"/>
      <point x="55" y="688"/>
      <point x="55" y="673" type="curve" smooth="yes"/>
      <point x="55" y="27" type="line" smooth="yes"/>
      <point x="55" y="11"/>
      <point x="67" y="0"/>
      <point x="82" y="0" type="curve" smooth="yes"/>
    </contour>
    <contour>
      <point x="717" y="297" type="line"/>
      <point x="782" y="297" type="line" smooth="yes"/>
      <point x="806" y="297"/>
      <point x="828" y="279"/>
      <point x="828" y="243" type="curve" smooth="yes"/>
      <point x="828" y="212"/>
      <point x="814" y="186"/>
      <point x="782" y="186" type="curve" smooth="yes"/>
      <point x="717" y="186" type="line"/>
    </contour>
  </outline>
</glyph>
<glyph name="uni040B" format="1">
  <advance width="830"/>
  <unicode hex="040B"/>
  <outline>
    <contour>
      <point x="380" y="0" type="line" smooth="yes"/>
      <point x="395" y="0"/>
      <point x="407" y="12"/>
      <point x="407" y="27" type="curve" smooth="yes"/>
      <point x="407" y="208" type="line" smooth="yes"/>
      <point x="407" y="234"/>
      <point x="443" y="239"/>
      <point x="475" y="239" type="curve" smooth="yes"/>
      <point x="522" y="239"/>
      <point x="542" y="227"/>
      <point x="542" y="202" type="curve" smooth="yes"/>
      <point x="542" y="27" type="line" smooth="yes"/>
      <point x="542" y="12"/>
      <point x="554" y="0"/>
      <point x="569" y="0" type="curve" smooth="yes"/>
      <point x="765" y="0" type="line" smooth="yes"/>
      <point x="780" y="0"/>
      <point x="792" y="12"/>
      <point x="792" y="27" type="curve" smooth="yes"/>
      <point x="792" y="223" type="line" smooth="yes"/>
      <point x="792" y="388"/>
      <point x="712" y="467"/>
      <point x="539" y="467" type="curve" smooth="yes"/>
      <point x="491" y="467"/>
      <point x="439" y="453"/>
      <point x="407" y="437" type="curve"/>
      <point x="407" y="523" type="line"/>
      <point x="614" y="523" type="line" smooth="yes"/>
      <point x="627" y="523"/>
      <point x="637" y="533"/>
      <point x="637" y="546" type="curve" smooth="yes"/>
      <point x="637" y="677" type="line" smooth="yes"/>
      <point x="637" y="690"/>
      <point x="627" y="700"/>
      <point x="614" y="700" type="curve" smooth="yes"/>
      <point x="40" y="700" type="line" smooth="yes"/>
      <point x="27" y="700"/>
      <point x="17" y="690"/>
      <point x="17" y="677" type="curve" smooth="yes"/>
      <point x="17" y="546" type="line" smooth="yes"/>
      <point x="17" y="533"/>
      <point x="27" y="523"/>
      <point x="40" y="523" type="curve" smooth="yes"/>
      <point x="157" y="523" type="line"/>
      <point x="157" y="27" type="line" smooth="yes"/>
      <point x="157" y="12"/>
      <point x="169" y="0"/>
      <point x="184" y="0" type="curve" smooth="yes"/>
    </contour>
  </outline>
</glyph>
<glyph name="uni040F" format="1">
  <advance width="772"/>
  <unicode hex="040F"/>
  <outline>
    <contour>
      <point x="484" y="-140" type="line" smooth="yes"/>
      <point x="499" y="-140"/>
      <point x="511" y="-128"/>
      <point x="511" y="-113" type="curve" smooth="yes"/>
      <point x="511" y="0" type="line"/>
      <point x="690" y="0" type="line" smooth="yes"/>
      <point x="705" y="0"/>
      <point x="717" y="12"/>
      <point x="717" y="27" type="curve" smooth="yes"/>
      <point x="717" y="673" type="line" smooth="yes"/>
      <point x="717" y="688"/>
      <point x="705" y="700"/>
      <point x="690" y="700" type="curve" smooth="yes"/>
      <point x="494" y="700" type="line" smooth="yes"/>
      <point x="479" y="700"/>
      <point x="467" y="688"/>
      <point x="467" y="673" type="curve" smooth="yes"/>
      <point x="467" y="220" type="line"/>
      <point x="305" y="220" type="line"/>
      <point x="305" y="673" type="line" smooth="yes"/>
      <point x="305" y="688"/>
      <point x="293" y="700"/>
      <point x="278" y="700" type="curve" smooth="yes"/>
      <point x="82" y="700" type="line" smooth="yes"/>
      <point x="67" y="700"/>
      <point x="55" y="689"/>
      <point x="55" y="673" type="curve" smooth="yes"/>
      <point x="55" y="27" type="line" smooth="yes"/>
      <point x="55" y="12"/>
      <point x="67" y="0"/>
      <point x="82" y="0" type="curve" smooth="yes"/>
      <point x="261" y="0" type="line"/>
      <point x="261" y="-113" type="line" smooth="yes"/>
      <point x="261" y="-128"/>
      <point x="273" y="-140"/>
      <point x="288" y="-140" type="curve" smooth="yes"/>
    </contour>
  </outline>
</glyph>
<glyph name="uni0411" format="1">
  <advance width="672"/>
  <unicode hex="0411"/>
  <outline>
    <contour>
      <point x="395" y="0" type="line" smooth="yes"/>
      <point x="575" y="0"/>
      <point x="681" y="85"/>
      <point x="681" y="226" type="curve" smooth="yes"/>
      <point x="681" y="365"/>
      <point x="570" y="447"/>
      <point x="395" y="447" type="curve" smooth="yes"/>
      <point x="305" y="447" type="line"/>
      <point x="305" y="495" type="line"/>
      <point x="600" y="495" type="line" smooth="yes"/>
      <point x="615" y="495"/>
      <point x="627" y="507"/>
      <point x="627" y="522" type="curve" smooth="yes"/>
      <point x="627" y="673" type="line" smooth="yes"/>
      <point x="627" y="688"/>
      <point x="615" y="700"/>
      <point x="600" y="700" type="curve" smooth="yes"/>
      <point x="82" y="700" type="line" smooth="yes"/>
      <point x="67" y="700"/>
      <point x="55" y="688"/>
      <point x="55" y="673" type="curve" smooth="yes"/>
      <point x="55" y="27" type="line" smooth="yes"/>
      <point x="55" y="12"/>
      <point x="67" y="0"/>
      <point x="82" y="0" type="curve" smooth="yes"/>
    </contour>
    <contour>
      <point x="305" y="280" type="line"/>
      <point x="375" y="280" type="line" smooth="yes"/>
      <point x="403" y="280"/>
      <point x="421" y="253"/>
      <point x="421" y="226" type="curve" smooth="yes"/>
      <point x="421" y="199"/>
      <point x="406" y="172"/>
      <point x="375" y="172" type="curve" smooth="yes"/>
      <point x="305" y="172" type="line"/>
    </contour>
  </outline>
</glyph>
<glyph name="uni0413" format="1">
  <advance width="599"/>
  <unicode hex="0413"/>
  <outline>
    <contour>
      <point x="278" y="0" type="line" smooth="yes"/>
      <point x="293" y="0"/>
      <point x="305" y="12"/>
      <point x="305" y="27" type="curve" smooth="yes"/>
      <point x="305" y="495" type="line"/>
      <point x="552" y="495" type="line" smooth="yes"/>
      <point x="567" y="495"/>
      <point x="579" y="507"/>
      <point x="579" y="522" type="curve" smooth="yes"/>
      <point x="579" y="673" type="line" smooth="yes"/>
      <point x="579" y="688"/>
      <point x="567" y="700"/>
      <point x="552" y="700" type="curve" smooth="yes"/>
      <point x="82" y="700" type="line" smooth="yes"/>
      <point x="67" y="700"/>
      <point x="55" y="688"/>
      <point x="55" y="673" type="curve" smooth="yes"/>
      <point x="55" y="27" type="line" smooth="yes"/>
      <point x="55" y="12"/>
      <point x="67" y="0"/>
      <point x="82" y="0" type="curve" smooth="yes"/>
    </contour>
    <contour>
      <point x="363" y="700" type="move" name="top"/>
    </contour>
    <contour>
      <point x="278" y="0" type="move" name="bottomright"/>
    </contour>
  </outline>
</glyph>
<glyph name="uni0414" format="1">
  <advance width="825"/>
  <unicode hex="0414"/>
  <outline>
    <contour>
      <point x="238" y="-140" type="line" smooth="yes"/>
      <point x="253" y="-140"/>
      <point x="265" y="-128"/>
      <point x="265" y="-113" type="curve" smooth="yes"/>
      <point x="265" y="0" type="line"/>
      <point x="545" y="0" type="line"/>
      <point x="545" y="-113" type="line" smooth="yes"/>
      <point x="545" y="-128"/>
      <point x="557" y="-140"/>
      <point x="572" y="-140" type="curve" smooth="yes"/>
      <point x="768" y="-140" type="line" smooth="yes"/>
      <point x="783" y="-140"/>
      <point x="795" y="-128"/>
      <point x="795" y="-113" type="curve" smooth="yes"/>
      <point x="795" y="193" type="line" smooth="yes"/>
      <point x="795" y="208"/>
      <point x="783" y="220"/>
      <point x="768" y="220" type="curve" smooth="yes"/>
      <point x="723" y="220" type="line"/>
      <point x="723" y="673" type="line" smooth="yes"/>
      <point x="723" y="688"/>
      <point x="711" y="700"/>
      <point x="696" y="700" type="curve" smooth="yes"/>
      <point x="158" y="700" type="line" smooth="yes"/>
      <point x="143" y="700"/>
      <point x="131" y="688"/>
      <point x="131" y="673" type="curve" smooth="yes"/>
      <point x="131" y="481" type="line" smooth="yes"/>
      <point x="131" y="363"/>
      <point x="123" y="220"/>
      <point x="57" y="220" type="curve" smooth="yes"/>
      <point x="42" y="220" type="line" smooth="yes"/>
      <point x="27" y="220"/>
      <point x="15" y="208"/>
      <point x="15" y="193" type="curve" smooth="yes"/>
      <point x="15" y="-113" type="line" smooth="yes"/>
      <point x="15" y="-129"/>
      <point x="27" y="-140"/>
      <point x="42" y="-140" type="curve" smooth="yes"/>
    </contour>
    <contour>
      <point x="361" y="274"/>
      <point x="371" y="350"/>
      <point x="371" y="449" type="curve" smooth="yes"/>
      <point x="371" y="480" type="line"/>
      <point x="473" y="480" type="line"/>
      <point x="473" y="220" type="line"/>
      <point x="342" y="220" type="line"/>
    </contour>
  </outline>
</glyph>
<glyph name="uni0416" format="1">
  <advance width="998"/>
  <unicode hex="0416"/>
  <outline>
    <contour>
      <point x="215" y="0" type="line" smooth="yes"/>
      <point x="242" y="0"/>
      <point x="252" y="8"/>
      <point x="256" y="23" type="curve" smooth="yes"/>
      <point x="308" y="200" type="line" smooth="yes"/>
      <point x="318" y="234"/>
      <point x="336" y="248"/>
      <point x="360" y="248" type="curve" smooth="yes"/>
      <point x="374" y="248" type="line"/>
      <point x="374" y="27" type="line" smooth="yes"/>
      <point x="374" y="12"/>
      <point x="386" y="0"/>
      <point x="401" y="0" type="curve" smooth="yes"/>
      <point x="597" y="0" type="line" smooth="yes"/>
      <point x="612" y="0"/>
      <point x="624" y="12"/>
      <point x="624" y="27" type="curve" smooth="yes"/>
      <point x="624" y="248" type="line"/>
      <point x="638" y="248" type="line" smooth="yes"/>
      <point x="662" y="248"/>
      <point x="680" y="234"/>
      <point x="690" y="200" type="curve" smooth="yes"/>
      <point x="742" y="23" type="line" smooth="yes"/>
      <point x="746" y="8"/>
      <point x="756" y="0"/>
      <point x="783" y="0" type="curve" smooth="yes"/>
      <point x="985" y="0" type="line" smooth="yes"/>
      <point x="1001" y="0"/>
      <point x="1009" y="17"/>
      <point x="1004" y="33" type="curve" smooth="yes"/>
      <point x="916" y="302" type="line" smooth="yes"/>
      <point x="879" y="415"/>
      <point x="813" y="463"/>
      <point x="722" y="463" type="curve" smooth="yes"/>
      <point x="624" y="463" type="line"/>
      <point x="624" y="673" type="line" smooth="yes"/>
      <point x="624" y="688"/>
      <point x="612" y="700"/>
      <point x="597" y="700" type="curve" smooth="yes"/>
      <point x="401" y="700" type="line" smooth="yes"/>
      <point x="386" y="700"/>
      <point x="374" y="688"/>
      <point x="374" y="673" type="curve" smooth="yes"/>
      <point x="374" y="463" type="line"/>
      <point x="276" y="463" type="line" smooth="yes"/>
      <point x="185" y="463"/>
      <point x="119" y="415"/>
      <point x="82" y="302" type="curve" smooth="yes"/>
      <point x="-6" y="33" type="line" smooth="yes"/>
      <point x="-11" y="17"/>
      <point x="-3" y="0"/>
      <point x="13" y="0" type="curve" smooth="yes"/>
    </contour>
    <contour>
      <point x="364" y="335" type="line"/>
      <point x="276" y="678" type="line" smooth="yes"/>
      <point x="273" y="690"/>
      <point x="263" y="700"/>
      <point x="241" y="700" type="curve" smooth="yes"/>
      <point x="37" y="700" type="line" smooth="yes"/>
      <point x="20" y="700"/>
      <point x="13" y="682"/>
      <point x="18" y="667" type="curve" smooth="yes"/>
      <point x="122" y="335" type="line"/>
    </contour>
    <contour>
      <point x="876" y="335" type="line"/>
      <point x="980" y="667" type="line" smooth="yes"/>
      <point x="985" y="682"/>
      <point x="978" y="700"/>
      <point x="961" y="700" type="curve" smooth="yes"/>
      <point x="757" y="700" type="line" smooth="yes"/>
      <point x="735" y="700"/>
      <point x="725" y="690"/>
      <point x="722" y="678" type="curve" smooth="yes"/>
      <point x="634" y="335" type="line"/>
    </contour>
  </outline>
</glyph>
<glyph name="uni0417" format="1">
  <advance width="704"/>
  <unicode hex="0417"/>
  <outline>
    <contour>
      <point x="546" y="-10"/>
      <point x="671" y="77"/>
      <point x="671" y="209" type="curve" smooth="yes"/>
      <point x="671" y="260"/>
      <point x="652" y="330"/>
      <point x="574" y="368" type="curve"/>
      <point x="639" y="403"/>
      <point x="652" y="460"/>
      <point x="652" y="501" type="curve" smooth="yes"/>
      <point x="652" y="618"/>
      <point x="525" y="710"/>
      <point x="344" y="710" type="curve" smooth="yes"/>
      <point x="103" y="710"/>
      <point x="34" y="589"/>
      <point x="24" y="501" type="curve" smooth="yes"/>
      <point x="23" y="489"/>
      <point x="34" y="479"/>
      <point x="46" y="479" type="curve" smooth="yes"/>
      <point x="244" y="479" type="line" smooth="yes"/>
      <point x="262" y="479"/>
      <point x="268" y="484"/>
      <point x="276" y="495" type="curve" smooth="yes"/>
      <point x="281" y="502"/>
      <point x="298" y="515"/>
      <point x="338" y="515" type="curve" smooth="yes"/>
      <point x="384" y="515"/>
      <point x="396" y="496"/>
      <point x="396" y="474" type="curve" smooth="yes"/>
      <point x="396" y="448"/>
      <point x="374" y="438"/>
      <point x="341" y="438" type="curve" smooth="yes"/>
      <point x="266" y="438" type="line" smooth="yes"/>
      <point x="251" y="438"/>
      <point x="239" y="424"/>
      <point x="239" y="409" type="curve" smooth="yes"/>
      <point x="239" y="289" type="line" smooth="yes"/>
      <point x="239" y="274"/>
      <point x="251" y="260"/>
      <point x="266" y="260" type="curve" smooth="yes"/>
      <point x="341" y="260" type="line" smooth="yes"/>
      <point x="388" y="260"/>
      <point x="411" y="249"/>
      <point x="411" y="221" type="curve" smooth="yes"/>
      <point x="411" y="196"/>
      <point x="391" y="183"/>
      <point x="338" y="183" type="curve" smooth="yes"/>
      <point x="302" y="183"/>
      <point x="284" y="190"/>
      <point x="271" y="203" type="curve" smooth="yes"/>
      <point x="262" y="212"/>
      <point x="255" y="219"/>
      <point x="237" y="219" type="curve" smooth="yes"/>
      <point x="41" y="219" type="line" smooth="yes"/>
      <point x="29" y="219"/>
      <point x="18" y="209"/>
      <point x="19" y="197" type="curve" smooth="yes"/>
      <point x="29" y="108"/>
      <point x="103" y="-10"/>
      <point x="344" y="-10" type="curve" smooth="yes"/>
    </contour>
  </outline>
</glyph>
<glyph name="uni0418" format="1">
  <advance width="810"/>
  <unicode hex="0418"/>
  <outline>
    <contour>
      <point x="255" y="0" type="line" smooth="yes"/>
      <point x="278" y="0"/>
      <point x="288" y="11"/>
      <point x="296" y="23" type="curve"/>
      <point x="505" y="308" type="line"/>
      <point x="505" y="27" type="line" smooth="yes"/>
      <point x="505" y="12"/>
      <point x="517" y="0"/>
      <point x="532" y="0" type="curve" smooth="yes"/>
      <point x="728" y="0" type="line" smooth="yes"/>
      <point x="743" y="0"/>
      <point x="755" y="12"/>
      <point x="755" y="27" type="curve" smooth="yes"/>
      <point x="755" y="673" type="line" smooth="yes"/>
      <point x="755" y="688"/>
      <point x="743" y="700"/>
      <point x="728" y="700" type="curve" smooth="yes"/>
      <point x="555" y="700" type="line" smooth="yes"/>
      <point x="536" y="700"/>
      <point x="523" y="692"/>
      <point x="514" y="677" type="curve"/>
      <point x="305" y="370" type="line"/>
      <point x="305" y="673" type="line" smooth="yes"/>
      <point x="305" y="688"/>
      <point x="293" y="700"/>
      <point x="278" y="700" type="curve" smooth="yes"/>
      <point x="82" y="700" type="line" smooth="yes"/>
      <point x="67" y="700"/>
      <point x="55" y="688"/>
      <point x="55" y="673" type="curve" smooth="yes"/>
      <point x="55" y="27" type="line" smooth="yes"/>
      <point x="55" y="12"/>
      <point x="67" y="0"/>
      <point x="82" y="0" type="curve" smooth="yes"/>
    </contour>
    <contour>
      <point x="415" y="700" type="move" name="top"/>
    </contour>
    <contour>
      <point x="790" y="0" type="move" name="bottomright"/>
    </contour>
  </outline>
</glyph>
<glyph name="uni041A" format="1">
  <advance width="715"/>
  <unicode hex="041A"/>
  <outline>
    <contour>
      <point x="278" y="0" type="line" smooth="yes"/>
      <point x="293" y="0"/>
      <point x="305" y="12"/>
      <point x="305" y="27" type="curve" smooth="yes"/>
      <point x="305" y="248" type="line"/>
      <point x="339" y="248" type="line" smooth="yes"/>
      <point x="363" y="248"/>
      <point x="378" y="233"/>
      <point x="391" y="200" type="curve" smooth="yes"/>
      <point x="457" y="23" type="line" smooth="yes"/>
      <point x="464" y="6"/>
      <point x="473" y="0"/>
      <point x="498" y="0" type="curve" smooth="yes"/>
      <point x="701" y="0" type="line" smooth="yes"/>
      <point x="718" y="0"/>
      <point x="726" y="18"/>
      <point x="720" y="33" type="curve" smooth="yes"/>
      <point x="618" y="302" type="line" smooth="yes"/>
      <point x="606" y="333"/>
      <point x="594" y="357"/>
      <point x="582" y="375" type="curve"/>
      <point x="695" y="667" type="line" smooth="yes"/>
      <point x="697" y="672"/>
      <point x="698" y="677"/>
      <point x="698" y="681" type="curve" smooth="yes"/>
      <point x="698" y="693"/>
      <point x="691" y="700"/>
      <point x="676" y="700" type="curve" smooth="yes"/>
      <point x="473" y="700" type="line" smooth="yes"/>
      <point x="451" y="700"/>
      <point x="438" y="693"/>
      <point x="433" y="678" type="curve" smooth="yes"/>
      <point x="357" y="463" type="line"/>
      <point x="305" y="463" type="line"/>
      <point x="305" y="673" type="line" smooth="yes"/>
      <point x="305" y="688"/>
      <point x="293" y="700"/>
      <point x="278" y="700" type="curve" smooth="yes"/>
      <point x="82" y="700" type="line" smooth="yes"/>
      <point x="67" y="700"/>
      <point x="55" y="688"/>
      <point x="55" y="673" type="curve" smooth="yes"/>
      <point x="55" y="27" type="line" smooth="yes"/>
      <point x="55" y="12"/>
      <point x="67" y="0"/>
      <point x="82" y="0" type="curve" smooth="yes"/>
    </contour>
    <contour>
      <point x="358" y="700" type="move" name="top"/>
    </contour>
    <contour>
      <point x="695" y="0" type="move" name="bottomright"/>
    </contour>
  </outline>
</glyph>
<glyph name="uni041B" format="1">
  <advance width="796"/>
  <unicode hex="041B"/>
  <outline>
    <contour>
      <point x="714" y="0" type="line" smooth="yes"/>
      <point x="729" y="0"/>
      <point x="741" y="12"/>
      <point x="741" y="27" type="curve" smooth="yes"/>
      <point x="741" y="673" type="line" smooth="yes"/>
      <point x="741" y="688"/>
      <point x="729" y="700"/>
      <point x="714" y="700" type="curve" smooth="yes"/>
      <point x="146" y="700" type="line" smooth="yes"/>
      <point x="131" y="700"/>
      <point x="119" y="688"/>
      <point x="119" y="673" type="curve" smooth="yes"/>
      <point x="119" y="481" type="line" smooth="yes"/>
      <point x="119" y="357"/>
      <point x="113" y="225"/>
      <point x="45" y="212" type="curve" smooth="yes"/>
      <point x="29" y="209"/>
      <point x="18" y="200"/>
      <point x="18" y="185" type="curve" smooth="yes"/>
      <point x="18" y="27" type="line" smooth="yes"/>
      <point x="18" y="12"/>
      <point x="31" y="0"/>
      <point x="46" y="0" type="curve" smooth="yes"/>
      <point x="323" y="0"/>
      <point x="359" y="127"/>
      <point x="359" y="449" type="curve" smooth="yes"/>
      <point x="359" y="480" type="line"/>
      <point x="491" y="480" type="line"/>
      <point x="491" y="27" type="line" smooth="yes"/>
      <point x="491" y="12"/>
      <point x="503" y="0"/>
      <point x="518" y="0" type="curve" smooth="yes"/>
    </contour>
  </outline>
</glyph>
<glyph name="uni041F" format="1">
  <advance width="772"/>
  <unicode hex="041F"/>
  <outline>
    <contour>
      <point x="278" y="0" type="line" smooth="yes"/>
      <point x="293" y="0"/>
      <point x="305" y="12"/>
      <point x="305" y="27" type="curve" smooth="yes"/>
      <point x="305" y="480" type="line"/>
      <point x="467" y="480" type="line"/>
      <point x="467" y="27" type="line" smooth="yes"/>
      <point x="467" y="12"/>
      <point x="479" y="0"/>
      <point x="494" y="0" type="curve" smooth="yes"/>
      <point x="690" y="0" type="line" smooth="yes"/>
      <point x="705" y="0"/>
      <point x="717" y="12"/>
      <point x="717" y="27" type="curve" smooth="yes"/>
      <point x="717" y="673" type="line" smooth="yes"/>
      <point x="717" y="688"/>
      <point x="705" y="700"/>
      <point x="690" y="700" type="curve" smooth="yes"/>
      <point x="82" y="700" type="line" smooth="yes"/>
      <point x="67" y="700"/>
      <point x="55" y="688"/>
      <point x="55" y="673" type="curve" smooth="yes"/>
      <point x="55" y="27" type="line" smooth="yes"/>
      <point x="55" y="11"/>
      <point x="67" y="0"/>
      <point x="82" y="0" type="curve" smooth="yes"/>
    </contour>
  </outline>
</glyph>
<glyph name="uni0423" format="1">
  <advance width="701"/>
  <unicode hex="0423"/>
  <outline>
    <contour>
      <point x="210" y="0" type="line" smooth="yes"/>
      <point x="380" y="0"/>
      <point x="434" y="44"/>
      <point x="503" y="204" type="curve" smooth="yes"/>
      <point x="697" y="656" type="line" smooth="yes"/>
      <point x="700" y="663"/>
      <point x="703" y="672"/>
      <point x="703" y="679" type="curve" smooth="yes"/>
      <point x="703" y="690"/>
      <point x="693" y="700"/>
      <point x="680" y="700" type="curve" smooth="yes"/>
      <point x="483" y="700" type="line" smooth="yes"/>
      <point x="467" y="700"/>
      <point x="455" y="692"/>
      <point x="449" y="676" type="curve" smooth="yes"/>
      <point x="270" y="267" type="line" smooth="yes"/>
      <point x="253" y="229"/>
      <point x="230" y="214"/>
      <point x="186" y="214" type="curve" smooth="yes"/>
      <point x="145" y="214" type="line" smooth="yes"/>
      <point x="130" y="214"/>
      <point x="118" y="202"/>
      <point x="118" y="187" type="curve" smooth="yes"/>
      <point x="118" y="27" type="line" smooth="yes"/>
      <point x="118" y="12"/>
      <point x="130" y="0"/>
      <point x="145" y="0" type="curve" smooth="yes"/>
    </contour>
    <contour>
      <point x="386" y="429" type="line"/>
      <point x="272" y="676" type="line" smooth="yes"/>
      <point x="265" y="691"/>
      <point x="257" y="700"/>
      <point x="240" y="700" type="curve" smooth="yes"/>
      <point x="31" y="700" type="line" smooth="yes"/>
      <point x="17" y="700"/>
      <point x="5" y="688"/>
      <point x="5" y="676" type="curve" smooth="yes"/>
      <point x="5" y="674"/>
      <point x="6" y="671"/>
      <point x="7" y="669" type="curve" smooth="yes"/>
      <point x="260" y="188" type="line"/>
    </contour>
    <contour>
      <point x="369" y="700" type="move" name="top"/>
    </contour>
  </outline>
</glyph>
<glyph name="uni0424" format="1">
  <advance width="989"/>
  <unicode hex="0424"/>
  <outline>
    <contour>
      <point x="592" y="-32" type="line" smooth="yes"/>
      <point x="607" y="-32"/>
      <point x="619" y="-20"/>
      <point x="619" y="-5" type="curve" smooth="yes"/>
      <point x="619" y="55" type="line"/>
      <point x="819" y="55"/>
      <point x="941" y="148"/>
      <point x="952" y="325" type="curve" smooth="yes"/>
      <point x="954" y="359"/>
      <point x="954" y="369"/>
      <point x="952" y="403" type="curve" smooth="yes"/>
      <point x="943" y="576"/>
      <point x="816" y="677"/>
      <point x="619" y="677" type="curve"/>
      <point x="619" y="724" type="line" smooth="yes"/>
      <point x="619" y="739"/>
      <point x="607" y="751"/>
      <point x="592" y="751" type="curve" smooth="yes"/>
      <point x="396" y="751" type="line" smooth="yes"/>
      <point x="381" y="751"/>
      <point x="369" y="739"/>
      <point x="369" y="724" type="curve" smooth="yes"/>
      <point x="369" y="677" type="line"/>
      <point x="172" y="677"/>
      <point x="45" y="576"/>
      <point x="36" y="403" type="curve"/>
      <point x="35" y="394"/>
      <point x="35" y="334"/>
      <point x="36" y="325" type="curve"/>
      <point x="47" y="148"/>
      <point x="169" y="55"/>
      <point x="369" y="55" type="curve"/>
      <point x="369" y="-5" type="line" smooth="yes"/>
      <point x="369" y="-20"/>
      <point x="381" y="-32"/>
      <point x="396" y="-32" type="curve" smooth="yes"/>
    </contour>
    <contour>
      <point x="322" y="250"/>
      <point x="298" y="276"/>
      <point x="295" y="331" type="curve" smooth="yes"/>
      <point x="295" y="354"/>
      <point x="295" y="378"/>
      <point x="295" y="401" type="curve" smooth="yes"/>
      <point x="298" y="455"/>
      <point x="323" y="482"/>
      <point x="371" y="482" type="curve"/>
      <point x="371" y="250" type="line"/>
    </contour>
    <contour>
      <point x="617" y="482" type="line"/>
      <point x="665" y="482"/>
      <point x="690" y="455"/>
      <point x="693" y="401" type="curve"/>
      <point x="694" y="393"/>
      <point x="694" y="340"/>
      <point x="693" y="331" type="curve"/>
      <point x="690" y="276"/>
      <point x="666" y="250"/>
      <point x="617" y="250" type="curve"/>
    </contour>
  </outline>
</glyph>
<glyph name="uni0426" format="1">
  <advance width="819"/>
  <unicode hex="0426"/>
  <outline>
    <contour>
      <point x="762" y="-140" type="line" smooth="yes"/>
      <point x="777" y="-140"/>
      <point x="789" y="-128"/>
      <point x="789" y="-113" type="curve" smooth="yes"/>
      <point x="789" y="193" type="line" smooth="yes"/>
      <point x="789" y="208"/>
      <point x="777" y="220"/>
      <point x="762" y="220" type="curve" smooth="yes"/>
      <point x="717" y="220" type="line"/>
      <point x="717" y="673" type="line" smooth="yes"/>
      <point x="717" y="688"/>
      <point x="705" y="700"/>
      <point x="690" y="700" type="curve" smooth="yes"/>
      <point x="494" y="700" type="line" smooth="yes"/>
      <point x="479" y="700"/>
      <point x="467" y="688"/>
      <point x="467" y="673" type="curve" smooth="yes"/>
      <point x="467" y="220" type="line"/>
      <point x="305" y="220" type="line"/>
      <point x="305" y="673" type="line" smooth="yes"/>
      <point x="305" y="688"/>
      <point x="293" y="700"/>
      <point x="278" y="700" type="curve" smooth="yes"/>
      <point x="82" y="700" type="line" smooth="yes"/>
      <point x="67" y="700"/>
      <point x="55" y="689"/>
      <point x="55" y="673" type="curve" smooth="yes"/>
      <point x="55" y="27" type="line" smooth="yes"/>
      <point x="55" y="12"/>
      <point x="67" y="0"/>
      <point x="82" y="0" type="curve" smooth="yes"/>
      <point x="539" y="0" type="line"/>
      <point x="539" y="-113" type="line" smooth="yes"/>
      <point x="539" y="-128"/>
      <point x="551" y="-140"/>
      <point x="566" y="-140" type="curve" smooth="yes"/>
    </contour>
  </outline>
</glyph>
<glyph name="uni0427" format="1">
  <advance width="737"/>
  <unicode hex="0427"/>
  <outline>
    <contour>
      <point x="646" y="0" type="line" smooth="yes"/>
      <point x="661" y="0"/>
      <point x="673" y="12"/>
      <point x="673" y="27" type="curve" smooth="yes"/>
      <point x="673" y="673" type="line" smooth="yes"/>
      <point x="673" y="688"/>
      <point x="661" y="700"/>
      <point x="646" y="700" type="curve" smooth="yes"/>
      <point x="450" y="700" type="line" smooth="yes"/>
      <point x="435" y="700"/>
      <point x="423" y="688"/>
      <point x="423" y="673" type="curve" smooth="yes"/>
      <point x="423" y="430" type="line" smooth="yes"/>
      <point x="423" y="416"/>
      <point x="385" y="404"/>
      <point x="355" y="404" type="curve" smooth="yes"/>
      <point x="308" y="404"/>
      <point x="288" y="424"/>
      <point x="288" y="471" type="curve" smooth="yes"/>
      <point x="288" y="673" type="line" smooth="yes"/>
      <point x="288" y="688"/>
      <point x="276" y="700"/>
      <point x="261" y="700" type="curve" smooth="yes"/>
      <point x="65" y="700" type="line" smooth="yes"/>
      <point x="50" y="700"/>
      <point x="38" y="688"/>
      <point x="38" y="673" type="curve" smooth="yes"/>
      <point x="38" y="461" type="line" smooth="yes"/>
      <point x="37" y="265"/>
      <point x="125" y="176"/>
      <point x="301" y="176" type="curve" smooth="yes"/>
      <point x="350" y="176"/>
      <point x="391" y="186"/>
      <point x="423" y="206" type="curve"/>
      <point x="423" y="27" type="line" smooth="yes"/>
      <point x="423" y="12"/>
      <point x="435" y="0"/>
      <point x="450" y="0" type="curve" smooth="yes"/>
    </contour>
  </outline>
</glyph>
<glyph name="uni0428" format="1">
  <advance width="1013"/>
  <unicode hex="0428"/>
  <outline>
    <contour>
      <point x="931" y="0" type="line" smooth="yes"/>
      <point x="946" y="0"/>
      <point x="958" y="12"/>
      <point x="958" y="27" type="curve" smooth="yes"/>
      <point x="958" y="673" type="line" smooth="yes"/>
      <point x="958" y="688"/>
      <point x="946" y="700"/>
      <point x="931" y="700" type="curve" smooth="yes"/>
      <point x="735" y="700" type="line" smooth="yes"/>
      <point x="720" y="700"/>
      <point x="708" y="688"/>
      <point x="708" y="673" type="curve" smooth="yes"/>
      <point x="708" y="220" type="line"/>
      <point x="632" y="220" type="line"/>
      <point x="632" y="673" type="line" smooth="yes"/>
      <point x="632" y="688"/>
      <point x="620" y="700"/>
      <point x="605" y="700" type="curve" smooth="yes"/>
      <point x="409" y="700" type="line" smooth="yes"/>
      <point x="394" y="700"/>
      <point x="382" y="688"/>
      <point x="382" y="673" type="curve" smooth="yes"/>
      <point x="382" y="220" type="line"/>
      <point x="305" y="220" type="line"/>
      <point x="305" y="673" type="line" smooth="yes"/>
      <point x="305" y="688"/>
      <point x="293" y="700"/>
      <point x="278" y="700" type="curve" smooth="yes"/>
      <point x="82" y="700" type="line" smooth="yes"/>
      <point x="67" y="700"/>
      <point x="55" y="689"/>
      <point x="55" y="673" type="curve" smooth="yes"/>
      <point x="55" y="27" type="line" smooth="yes"/>
      <point x="55" y="12"/>
      <point x="67" y="0"/>
      <point x="82" y="0" type="curve" smooth="yes"/>
    </contour>
  </outline>
</glyph>
<glyph name="uni0429" format="1">
  <advance width="1060"/>
  <unicode hex="0429"/>
  <outline>
    <contour>
      <point x="1003" y="-140" type="line" smooth="yes"/>
      <point x="1018" y="-140"/>
      <point x="1030" y="-128"/>
      <point x="1030" y="-113" type="curve" smooth="yes"/>
      <point x="1030" y="193" type="line" smooth="yes"/>
      <point x="1030" y="208"/>
      <point x="1018" y="220"/>
      <point x="1003" y="220" type="curve" smooth="yes"/>
      <point x="958" y="220" type="line"/>
      <point x="958" y="673" type="line" smooth="yes"/>
      <point x="958" y="688"/>
      <point x="946" y="700"/>
      <point x="931" y="700" type="curve" smooth="yes"/>
      <point x="735" y="700" type="line" smooth="yes"/>
      <point x="720" y="700"/>
      <point x="708" y="688"/>
      <point x="708" y="673" type="curve" smooth="yes"/>
      <point x="708" y="220" type="line"/>
      <point x="632" y="220" type="line"/>
      <point x="632" y="673" type="line" smooth="yes"/>
      <point x="632" y="688"/>
      <point x="620" y="700"/>
      <point x="605" y="700" type="curve" smooth="yes"/>
      <point x="409" y="700" type="line" smooth="yes"/>
      <point x="394" y="700"/>
      <point x="382" y="688"/>
      <point x="382" y="673" type="curve" smooth="yes"/>
      <point x="382" y="220" type="line"/>
      <point x="305" y="220" type="line"/>
      <point x="305" y="673" type="line" smooth="yes"/>
      <point x="305" y="688"/>
      <point x="293" y="700"/>
      <point x="278" y="700" type="curve" smooth="yes"/>
      <point x="82" y="700" type="line" smooth="yes"/>
      <point x="67" y="700"/>
      <point x="55" y="689"/>
      <point x="55" y="673" type="curve" smooth="yes"/>
      <point x="55" y="27" type="line" smooth="yes"/>
      <point x="55" y="12"/>
      <point x="67" y="0"/>
      <point x="82" y="0" type="curve" smooth="yes"/>
      <point x="780" y="0" type="line"/>
      <point x="780" y="-113" type="line" smooth="yes"/>
      <point x="780" y="-128"/>
      <point x="792" y="-140"/>
      <point x="807" y="-140" type="curve" smooth="yes"/>
    </contour>
  </outline>
</glyph>
<glyph name="uni042A" format="1">
  <advance width="807"/>
  <unicode hex="042A"/>
  <outline>
    <contour>
      <point x="472" y="0" type="line" smooth="yes"/>
      <point x="664" y="0"/>
      <point x="778" y="84"/>
      <point x="778" y="245" type="curve" smooth="yes"/>
      <point x="778" y="406"/>
      <point x="665" y="482"/>
      <point x="472" y="482" type="curve" smooth="yes"/>
      <point x="407" y="482" type="line"/>
      <point x="407" y="673" type="line" smooth="yes"/>
      <point x="407" y="688"/>
      <point x="395" y="700"/>
      <point x="380" y="700" type="curve" smooth="yes"/>
      <point x="44" y="700" type="line" smooth="yes"/>
      <point x="29" y="700"/>
      <point x="17" y="688"/>
      <point x="17" y="673" type="curve" smooth="yes"/>
      <point x="17" y="532" type="line" smooth="yes"/>
      <point x="17" y="517"/>
      <point x="29" y="505"/>
      <point x="44" y="505" type="curve" smooth="yes"/>
      <point x="157" y="505" type="line"/>
      <point x="157" y="27" type="line" smooth="yes"/>
      <point x="157" y="12"/>
      <point x="169" y="0"/>
      <point x="184" y="0" type="curve" smooth="yes"/>
    </contour>
    <contour>
      <point x="407" y="297" type="line"/>
      <point x="472" y="297" type="line" smooth="yes"/>
      <point x="496" y="297"/>
      <point x="518" y="279"/>
      <point x="518" y="243" type="curve" smooth="yes"/>
      <point x="518" y="212"/>
      <point x="504" y="186"/>
      <point x="472" y="186" type="curve" smooth="yes"/>
      <point x="407" y="186" type="line"/>
    </contour>
  </outline>
</glyph>
<glyph name="uni042B" format="1">
  <advance width="1048"/>
  <unicode hex="042B"/>
  <outline>
    <contour>
      <point x="370" y="0" type="line" smooth="yes"/>
      <point x="562" y="0"/>
      <point x="676" y="84"/>
      <point x="676" y="245" type="curve" smooth="yes"/>
      <point x="676" y="406"/>
      <point x="563" y="482"/>
      <point x="370" y="482" type="curve" smooth="yes"/>
      <point x="305" y="482" type="line"/>
      <point x="305" y="673" type="line" smooth="yes"/>
      <point x="305" y="688"/>
      <point x="293" y="700"/>
      <point x="278" y="700" type="curve" smooth="yes"/>
      <point x="82" y="700" type="line" smooth="yes"/>
      <point x="67" y="700"/>
      <point x="55" y="688"/>
      <point x="55" y="673" type="curve" smooth="yes"/>
      <point x="55" y="27" type="line" smooth="yes"/>
      <point x="55" y="12"/>
      <point x="67" y="0"/>
      <point x="82" y="0" type="curve" smooth="yes"/>
    </contour>
    <contour>
      <point x="305" y="297" type="line"/>
      <point x="370" y="297" type="line" smooth="yes"/>
      <point x="394" y="297"/>
      <point x="416" y="279"/>
      <point x="416" y="243" type="curve" smooth="yes"/>
      <point x="416" y="212"/>
      <point x="402" y="186"/>
      <point x="370" y="186" type="curve" smooth="yes"/>
      <point x="305" y="186" type="line"/>
    </contour>
    <component base="I" xOffset="680"/>
  </outline>
</glyph>
<glyph name="uni042C" format="1">
  <advance width="705"/>
  <unicode hex="042C"/>
  <outline>
    <contour>
      <point x="370" y="0" type="line" smooth="yes"/>
      <point x="562" y="0"/>
      <point x="676" y="84"/>
      <point x="676" y="245" type="curve" smooth="yes"/>
      <point x="676" y="406"/>
      <point x="563" y="482"/>
      <point x="370" y="482" type="curve" smooth="yes"/>
      <point x="305" y="482" type="line"/>
      <point x="305" y="673" type="line" smooth="yes"/>
      <point x="305" y="688"/>
      <point x="293" y="700"/>
      <point x="278" y="700" type="curve" smooth="yes"/>
      <point x="82" y="700" type="line" smooth="yes"/>
      <point x="67" y="700"/>
      <point x="55" y="688"/>
      <point x="55" y="673" type="curve" smooth="yes"/>
      <point x="55" y="27" type="line" smooth="yes"/>
      <point x="55" y="12"/>
      <point x="67" y="0"/>
      <point x="82" y="0" type="curve" smooth="yes"/>
    </contour>
    <contour>
      <point x="305" y="297" type="line"/>
      <point x="370" y="297" type="line" smooth="yes"/>
      <point x="394" y="297"/>
      <point x="416" y="279"/>
      <point x="416" y="243" type="curve" smooth="yes"/>
      <point x="416" y="212"/>
      <point x="402" y="186"/>
      <point x="370" y="186" type="curve" smooth="yes"/>
      <point x="305" y="186" type="line"/>
    </contour>
  </outline>
</glyph>
<glyph name="uni042D" format="1">
  <advance width="728"/>
  <unicode hex="042D"/>
  <outline>
    <contour>
      <point x="556" y="-10"/>
      <point x="682" y="77"/>
      <point x="690" y="261" type="curve" smooth="yes"/>
      <point x="692" y="336"/>
      <point x="692" y="364"/>
      <point x="690" y="439" type="curve" smooth="yes"/>
      <point x="682" y="618"/>
      <point x="551" y="710"/>
      <point x="355" y="710" type="curve" smooth="yes"/>
      <point x="191" y="710"/>
      <point x="52" y="649"/>
      <point x="35" y="501" type="curve" smooth="yes"/>
      <point x="34" y="489"/>
      <point x="45" y="479"/>
      <point x="57" y="479" type="curve" smooth="yes"/>
      <point x="255" y="479" type="line" smooth="yes"/>
      <point x="272" y="479"/>
      <point x="278" y="483"/>
      <point x="287" y="495" type="curve" smooth="yes"/>
      <point x="294" y="504"/>
      <point x="314" y="515"/>
      <point x="349" y="515" type="curve" smooth="yes"/>
      <point x="401" y="515"/>
      <point x="430" y="494"/>
      <point x="430" y="448" type="curve"/>
      <point x="430" y="438" type="line"/>
      <point x="277" y="438" type="line" smooth="yes"/>
      <point x="262" y="438"/>
      <point x="250" y="424"/>
      <point x="250" y="409" type="curve" smooth="yes"/>
      <point x="250" y="289" type="line" smooth="yes"/>
      <point x="250" y="274"/>
      <point x="262" y="260"/>
      <point x="277" y="260" type="curve" smooth="yes"/>
      <point x="430" y="260" type="line"/>
      <point x="430" y="250" type="line"/>
      <point x="430" y="205"/>
      <point x="400" y="183"/>
      <point x="349" y="183" type="curve" smooth="yes"/>
      <point x="314" y="183"/>
      <point x="295" y="190"/>
      <point x="282" y="203" type="curve" smooth="yes"/>
      <point x="271" y="214"/>
      <point x="264" y="219"/>
      <point x="248" y="219" type="curve" smooth="yes"/>
      <point x="52" y="219" type="line" smooth="yes"/>
      <point x="40" y="219"/>
      <point x="29" y="209"/>
      <point x="30" y="197" type="curve" smooth="yes"/>
      <point x="46" y="58"/>
      <point x="186" y="-10"/>
      <point x="355" y="-10" type="curve" smooth="yes"/>
    </contour>
  </outline>
</glyph>
<glyph name="uni042E" format="1">
  <advance width="1110"/>
  <unicode hex="042E"/>
  <outline>
    <contour>
      <point x="935" y="-10"/>
      <point x="1065" y="81"/>
      <point x="1073" y="260" type="curve" smooth="yes"/>
      <point x="1075" y="314"/>
      <point x="1075" y="379"/>
      <point x="1073" y="436" type="curve" smooth="yes"/>
      <point x="1066" y="611"/>
      <point x="935" y="710"/>
      <point x="739" y="710" type="curve" smooth="yes"/>
      <point x="556" y="710"/>
      <point x="430" y="624"/>
      <point x="408" y="471" type="curve" smooth="yes"/>
      <point x="408" y="469"/>
      <point x="407" y="466"/>
      <point x="407" y="463" type="curve"/>
      <point x="305" y="463" type="line"/>
      <point x="305" y="673" type="line"/>
      <point x="305" y="688"/>
      <point x="293" y="700"/>
      <point x="278" y="700" type="curve"/>
      <point x="82" y="700" type="line"/>
      <point x="67" y="700"/>
      <point x="55" y="688"/>
      <point x="55" y="673" type="curve"/>
      <point x="55" y="27" type="line"/>
      <point x="55" y="11"/>
      <point x="67" y="0"/>
      <point x="82" y="0" type="curve"/>
      <point x="278" y="0" type="line"/>
      <point x="293" y="0"/>
      <point x="305" y="12"/>
      <point x="305" y="27" type="curve"/>
      <point x="305" y="243" type="line"/>
      <point x="406" y="243" type="line"/>
      <point x="406" y="241"/>
      <point x="406" y="240"/>
      <point x="407" y="238" type="curve" smooth="yes"/>
      <point x="425" y="73"/>
      <point x="551" y="-10"/>
      <point x="739" y="-10" type="curve" smooth="yes"/>
    </contour>
    <contour>
      <point x="695" y="185"/>
      <point x="667" y="210"/>
      <point x="665" y="266" type="curve" smooth="yes"/>
      <point x="663" y="323"/>
      <point x="663" y="379"/>
      <point x="665" y="434" type="curve" smooth="yes"/>
      <point x="667" y="490"/>
      <point x="696" y="515"/>
      <point x="739" y="515" type="curve" smooth="yes"/>
      <point x="782" y="515"/>
      <point x="811" y="490"/>
      <point x="813" y="434" type="curve" smooth="yes"/>
      <point x="815" y="379"/>
      <point x="815" y="323"/>
      <point x="813" y="266" type="curve" smooth="yes"/>
      <point x="811" y="210"/>
      <point x="783" y="185"/>
      <point x="739" y="185" type="curve" smooth="yes"/>
    </contour>
  </outline>
</glyph>
<glyph name="uni042F" format="1">
  <advance width="722"/>
  <unicode hex="042F"/>
  <outline>
    <contour>
      <point x="640" y="0" type="line" smooth="yes"/>
      <point x="655" y="0"/>
      <point x="667" y="12"/>
      <point x="667" y="27" type="curve" smooth="yes"/>
      <point x="667" y="673" type="line" smooth="yes"/>
      <point x="667" y="688"/>
      <point x="655" y="700"/>
      <point x="640" y="700" type="curve" smooth="yes"/>
      <point x="344" y="700" type="line" smooth="yes"/>
      <point x="152" y="700"/>
      <point x="38" y="609"/>
      <point x="38" y="457" type="curve" smooth="yes"/>
      <point x="38" y="314"/>
      <point x="155" y="218"/>
      <point x="308" y="218" type="curve" smooth="yes"/>
      <point x="417" y="218" type="line"/>
      <point x="417" y="27" type="line" smooth="yes"/>
      <point x="417" y="12"/>
      <point x="429" y="0"/>
      <point x="444" y="0" type="curve" smooth="yes"/>
    </contour>
    <contour>
      <point x="247" y="0" type="line" smooth="yes"/>
      <point x="271" y="0"/>
      <point x="285" y="14"/>
      <point x="290" y="27" type="curve"/>
      <point x="383" y="233" type="line"/>
      <point x="154" y="275" type="line"/>
      <point x="23" y="33" type="line" smooth="yes"/>
      <point x="21" y="29"/>
      <point x="20" y="25"/>
      <point x="20" y="22" type="curve" smooth="yes"/>
      <point x="20" y="10"/>
      <point x="30" y="0"/>
      <point x="42" y="0" type="curve" smooth="yes"/>
    </contour>
    <contour>
      <point x="315" y="408"/>
      <point x="298" y="430"/>
      <point x="298" y="459" type="curve" smooth="yes"/>
      <point x="298" y="488"/>
      <point x="313" y="514"/>
      <point x="344" y="514" type="curve" smooth="yes"/>
      <point x="417" y="514" type="line"/>
      <point x="417" y="408" type="line"/>
      <point x="344" y="408" type="line" smooth="yes"/>
    </contour>
  </outline>
</glyph>
<glyph name="uni0431" format="1">
  <advance width="642"/>
  <unicode hex="0431"/>
  <outline>
    <contour>
      <point x="505" y="-10"/>
      <point x="601" y="58"/>
      <point x="611" y="189" type="curve" smooth="yes"/>
      <point x="613" y="215"/>
      <point x="613" y="246"/>
      <point x="611" y="272" type="curve" smooth="yes"/>
      <point x="601" y="403"/>
      <point x="521" y="471"/>
      <point x="365" y="471" type="curve" smooth="yes"/>
      <point x="303" y="471"/>
      <point x="248" y="443"/>
      <point x="226" y="414" type="curve"/>
      <point x="253" y="369" type="line"/>
      <point x="253" y="539"/>
      <point x="272" y="555"/>
      <point x="535" y="596" type="curve" smooth="yes"/>
      <point x="550" y="598"/>
      <point x="559" y="612"/>
      <point x="556" y="629" type="curve" smooth="yes"/>
      <point x="531" y="764" type="line"/>
      <point x="529" y="781"/>
      <point x="514" y="790"/>
      <point x="499" y="787" type="curve" smooth="yes"/>
      <point x="155" y="718"/>
      <point x="45" y="666"/>
      <point x="31" y="406" type="curve" smooth="yes"/>
      <point x="29" y="368"/>
      <point x="29" y="322"/>
      <point x="31" y="284" type="curve" smooth="yes"/>
      <point x="42" y="67"/>
      <point x="118" y="-10"/>
      <point x="321" y="-10" type="curve" smooth="yes"/>
    </contour>
    <contour>
      <point x="283" y="132"/>
      <point x="278" y="151"/>
      <point x="276" y="193" type="curve" smooth="yes"/>
      <point x="275" y="211"/>
      <point x="275" y="250"/>
      <point x="276" y="268" type="curve" smooth="yes"/>
      <point x="278" y="307"/>
      <point x="284" y="328"/>
      <point x="325" y="328" type="curve" smooth="yes"/>
      <point x="360" y="328"/>
      <point x="364" y="307"/>
      <point x="366" y="268" type="curve" smooth="yes"/>
      <point x="367" y="250"/>
      <point x="367" y="211"/>
      <point x="366" y="193" type="curve" smooth="yes"/>
      <point x="364" y="151"/>
      <point x="359" y="132"/>
      <point x="321" y="132" type="curve" smooth="yes"/>
    </contour>
  </outline>
</glyph>
<glyph name="uni0432" format="1">
  <advance width="644"/>
  <unicode hex="0432"/>
  <outline>
    <contour>
      <point x="349" y="0" type="line" smooth="yes"/>
      <point x="535" y="0"/>
      <point x="610" y="63"/>
      <point x="610" y="159" type="curve" smooth="yes"/>
      <point x="610" y="212"/>
      <point x="583" y="244"/>
      <point x="544" y="267" type="curve"/>
      <point x="570" y="289"/>
      <point x="590" y="321"/>
      <point x="590" y="364" type="curve" smooth="yes"/>
      <point x="590" y="460"/>
      <point x="515" y="520"/>
      <point x="329" y="520" type="curve" smooth="yes"/>
      <point x="72" y="520" type="line" smooth="yes"/>
      <point x="57" y="520"/>
      <point x="45" y="508"/>
      <point x="45" y="493" type="curve" smooth="yes"/>
      <point x="45" y="27" type="line" smooth="yes"/>
      <point x="45" y="12"/>
      <point x="57" y="0"/>
      <point x="72" y="0" type="curve"/>
    </contour>
    <contour>
      <point x="269" y="188" type="line"/>
      <point x="339" y="188" type="line" smooth="yes"/>
      <point x="362" y="188"/>
      <point x="375" y="182"/>
      <point x="375" y="162" type="curve" smooth="yes"/>
      <point x="375" y="142"/>
      <point x="362" y="137"/>
      <point x="339" y="137" type="curve" smooth="yes"/>
      <point x="269" y="137" type="line"/>
    </contour>
    <contour>
      <point x="269" y="383" type="line"/>
      <point x="339" y="383" type="line" smooth="yes"/>
      <point x="362" y="383"/>
      <point x="375" y="377"/>
      <point x="375" y="357" type="curve" smooth="yes"/>
      <point x="375" y="337"/>
      <point x="363" y="332"/>
      <point x="339" y="332" type="curve" smooth="yes"/>
      <point x="269" y="332" type="line"/>
    </contour>
  </outline>
</glyph>
<glyph name="uni0433" format="1">
  <advance width="485"/>
  <unicode hex="0433"/>
  <outline>
    <contour>
      <point x="252" y="0" type="line" smooth="yes"/>
      <point x="267" y="0"/>
      <point x="279" y="12"/>
      <point x="279" y="27" type="curve" smooth="yes"/>
      <point x="279" y="345" type="line"/>
      <point x="438" y="345" type="line" smooth="yes"/>
      <point x="453" y="345"/>
      <point x="465" y="357"/>
      <point x="465" y="372" type="curve" smooth="yes"/>
      <point x="465" y="493" type="line" smooth="yes"/>
      <point x="465" y="508"/>
      <point x="453" y="520"/>
      <point x="438" y="520" type="curve" smooth="yes"/>
      <point x="73" y="520" type="line" smooth="yes"/>
      <point x="58" y="520"/>
      <point x="46" y="508"/>
      <point x="46" y="493" type="curve" smooth="yes"/>
      <point x="46" y="27" type="line" smooth="yes"/>
      <point x="46" y="12"/>
      <point x="58" y="0"/>
      <point x="73" y="0" type="curve" smooth="yes"/>
    </contour>
    <contour>
      <point x="255" y="520" type="move" name="top"/>
    </contour>
    <contour>
      <point x="253" y="0" type="move" name="bottomright"/>
    </contour>
  </outline>
</glyph>
<glyph name="uni0434" format="1">
  <advance width="699"/>
  <unicode hex="0434"/>
  <outline>
    <contour>
      <point x="226" y="-110" type="line" smooth="yes"/>
      <point x="241" y="-110"/>
      <point x="253" y="-98"/>
      <point x="253" y="-83" type="curve" smooth="yes"/>
      <point x="253" y="0" type="line"/>
      <point x="454" y="0" type="line"/>
      <point x="454" y="-83" type="line" smooth="yes"/>
      <point x="454" y="-98"/>
      <point x="466" y="-110"/>
      <point x="481" y="-110" type="curve" smooth="yes"/>
      <point x="660" y="-110" type="line" smooth="yes"/>
      <point x="675" y="-110"/>
      <point x="687" y="-98"/>
      <point x="687" y="-83" type="curve" smooth="yes"/>
      <point x="687" y="148" type="line" smooth="yes"/>
      <point x="687" y="163"/>
      <point x="675" y="175"/>
      <point x="660" y="175" type="curve" smooth="yes"/>
      <point x="621" y="175" type="line"/>
      <point x="621" y="493" type="line" smooth="yes"/>
      <point x="621" y="508"/>
      <point x="609" y="520"/>
      <point x="594" y="520" type="curve" smooth="yes"/>
      <point x="138" y="520" type="line" smooth="yes"/>
      <point x="123" y="520"/>
      <point x="111" y="508"/>
      <point x="111" y="493" type="curve" smooth="yes"/>
      <point x="111" y="341" type="line" smooth="yes"/>
      <point x="111" y="249"/>
      <point x="109" y="175"/>
      <point x="61" y="175" type="curve" smooth="yes"/>
      <point x="47" y="175" type="line" smooth="yes"/>
      <point x="32" y="175"/>
      <point x="20" y="163"/>
      <point x="20" y="148" type="curve" smooth="yes"/>
      <point x="20" y="-83" type="line" smooth="yes"/>
      <point x="20" y="-98"/>
      <point x="32" y="-110"/>
      <point x="47" y="-110" type="curve" smooth="yes"/>
    </contour>
    <contour>
      <point x="325" y="206"/>
      <point x="331" y="253"/>
      <point x="331" y="316" type="curve" smooth="yes"/>
      <point x="331" y="345" type="line"/>
      <point x="388" y="345" type="line"/>
      <point x="388" y="175" type="line"/>
      <point x="313" y="175" type="line"/>
    </contour>
  </outline>
</glyph>
<glyph name="uni0435" format="1">
  <advance width="623"/>
  <unicode hex="0435"/>
  <outline>
    <component base="e"/>
    <contour>
      <point x="312" y="520" type="move" name="top"/>
    </contour>
  </outline>
</glyph>
<glyph name="uni0436" format="1">
  <advance width="943"/>
  <unicode hex="0436"/>
  <outline>
    <contour>
      <point x="222" y="0" type="line" smooth="yes"/>
      <point x="240" y="0"/>
      <point x="251" y="8"/>
      <point x="253" y="17" type="curve" smooth="yes"/>
      <point x="288" y="139" type="line" smooth="yes"/>
      <point x="295" y="164"/>
      <point x="309" y="174"/>
      <point x="327" y="174" type="curve" smooth="yes"/>
      <point x="355" y="174" type="line"/>
      <point x="355" y="27" type="line" smooth="yes"/>
      <point x="355" y="12"/>
      <point x="367" y="0"/>
      <point x="382" y="0" type="curve" smooth="yes"/>
      <point x="561" y="0" type="line" smooth="yes"/>
      <point x="576" y="0"/>
      <point x="588" y="12"/>
      <point x="588" y="27" type="curve" smooth="yes"/>
      <point x="588" y="174" type="line"/>
      <point x="616" y="174" type="line" smooth="yes"/>
      <point x="634" y="174"/>
      <point x="648" y="164"/>
      <point x="655" y="139" type="curve" smooth="yes"/>
      <point x="690" y="17" type="line" smooth="yes"/>
      <point x="693" y="7"/>
      <point x="704" y="0"/>
      <point x="721" y="0" type="curve" smooth="yes"/>
      <point x="898" y="0" type="line" smooth="yes"/>
      <point x="911" y="0"/>
      <point x="916" y="13"/>
      <point x="912" y="24" type="curve" smooth="yes"/>
      <point x="846" y="224" type="line" smooth="yes"/>
      <point x="819" y="307"/>
      <point x="770" y="343"/>
      <point x="702" y="343" type="curve" smooth="yes"/>
      <point x="588" y="343" type="line"/>
      <point x="588" y="493" type="line" smooth="yes"/>
      <point x="588" y="508"/>
      <point x="576" y="520"/>
      <point x="561" y="520" type="curve" smooth="yes"/>
      <point x="382" y="520" type="line" smooth="yes"/>
      <point x="367" y="520"/>
      <point x="355" y="508"/>
      <point x="355" y="493" type="curve" smooth="yes"/>
      <point x="355" y="343" type="line"/>
      <point x="241" y="343" type="line" smooth="yes"/>
      <point x="173" y="343"/>
      <point x="125" y="307"/>
      <point x="97" y="224" type="curve" smooth="yes"/>
      <point x="31" y="24" type="line" smooth="yes"/>
      <point x="27" y="12"/>
      <point x="33" y="0"/>
      <point x="45" y="0" type="curve" smooth="yes"/>
    </contour>
    <contour>
      <point x="348" y="270" type="line"/>
      <point x="281" y="504" type="line" smooth="yes"/>
      <point x="279" y="513"/>
      <point x="268" y="520"/>
      <point x="252" y="520" type="curve" smooth="yes"/>
      <point x="70" y="520" type="line" smooth="yes"/>
      <point x="58" y="520"/>
      <point x="47" y="510"/>
      <point x="47" y="497" type="curve" smooth="yes"/>
      <point x="47" y="494"/>
      <point x="48" y="490"/>
      <point x="49" y="487" type="curve" smooth="yes"/>
      <point x="131" y="270" type="line"/>
    </contour>
    <contour>
      <point x="812" y="270" type="line"/>
      <point x="894" y="488" type="line" smooth="yes"/>
      <point x="895" y="491"/>
      <point x="896" y="494"/>
      <point x="896" y="497" type="curve" smooth="yes"/>
      <point x="896" y="509"/>
      <point x="886" y="520"/>
      <point x="872" y="520" type="curve" smooth="yes"/>
      <point x="691" y="520" type="line" smooth="yes"/>
      <point x="675" y="520"/>
      <point x="665" y="514"/>
      <point x="662" y="504" type="curve" smooth="yes"/>
      <point x="595" y="270" type="line"/>
    </contour>
  </outline>
</glyph>
<glyph name="uni0437" format="1">
  <advance width="577"/>
  <unicode hex="0437"/>
  <outline>
    <contour>
      <point x="451" y="-10"/>
      <point x="546" y="59"/>
      <point x="546" y="149" type="curve" smooth="yes"/>
      <point x="546" y="196"/>
      <point x="528" y="252"/>
      <point x="467" y="273" type="curve"/>
      <point x="516" y="295"/>
      <point x="534" y="340"/>
      <point x="534" y="380" type="curve" smooth="yes"/>
      <point x="534" y="471"/>
      <point x="465" y="530"/>
      <point x="277" y="530" type="curve" smooth="yes"/>
      <point x="75" y="530"/>
      <point x="26" y="427"/>
      <point x="16" y="368" type="curve" smooth="yes"/>
      <point x="14" y="359"/>
      <point x="23" y="351"/>
      <point x="32" y="351" type="curve" smooth="yes"/>
      <point x="201" y="351" type="line" smooth="yes"/>
      <point x="218" y="351"/>
      <point x="222" y="358"/>
      <point x="229" y="363" type="curve" smooth="yes"/>
      <point x="240" y="372"/>
      <point x="249" y="376"/>
      <point x="275" y="376" type="curve" smooth="yes"/>
      <point x="300" y="376"/>
      <point x="311" y="366"/>
      <point x="311" y="350" type="curve" smooth="yes"/>
      <point x="311" y="334"/>
      <point x="304" y="324"/>
      <point x="274" y="324" type="curve" smooth="yes"/>
      <point x="217" y="324" type="line" smooth="yes"/>
      <point x="205" y="324"/>
      <point x="196" y="313"/>
      <point x="196" y="302" type="curve" smooth="yes"/>
      <point x="196" y="219" type="line" smooth="yes"/>
      <point x="196" y="208"/>
      <point x="205" y="197"/>
      <point x="217" y="197" type="curve" smooth="yes"/>
      <point x="274" y="197" type="line" smooth="yes"/>
      <point x="308" y="197"/>
      <point x="315" y="185"/>
      <point x="315" y="171" type="curve" smooth="yes"/>
      <point x="315" y="152"/>
      <point x="305" y="142"/>
      <point x="275" y="142" type="curve" smooth="yes"/>
      <point x="248" y="142"/>
      <point x="239" y="148"/>
      <point x="231" y="154" type="curve" smooth="yes"/>
      <point x="224" y="159"/>
      <point x="220" y="166"/>
      <point x="203" y="166" type="curve" smooth="yes"/>
      <point x="28" y="166" type="line" smooth="yes"/>
      <point x="20" y="166"/>
      <point x="9" y="158"/>
      <point x="12" y="149" type="curve" smooth="yes"/>
      <point x="22" y="90"/>
      <point x="68" y="-10"/>
      <point x="277" y="-10" type="curve" smooth="yes"/>
    </contour>
  </outline>
</glyph>
<glyph name="uni0438" format="1">
  <advance width="663"/>
  <unicode hex="0438"/>
  <outline>
    <contour>
      <point x="231" y="0" type="line" smooth="yes"/>
      <point x="243" y="0"/>
      <point x="253" y="6"/>
      <point x="260" y="17" type="curve" smooth="yes"/>
      <point x="460" y="324" type="line"/>
      <point x="399" y="342" type="line"/>
      <point x="399" y="27" type="line" smooth="yes"/>
      <point x="399" y="12"/>
      <point x="411" y="0"/>
      <point x="426" y="0" type="curve" smooth="yes"/>
      <point x="605" y="0" type="line" smooth="yes"/>
      <point x="620" y="0"/>
      <point x="632" y="12"/>
      <point x="632" y="27" type="curve" smooth="yes"/>
      <point x="632" y="493" type="line" smooth="yes"/>
      <point x="632" y="508"/>
      <point x="620" y="520"/>
      <point x="605" y="520" type="curve" smooth="yes"/>
      <point x="446" y="520" type="line" smooth="yes"/>
      <point x="434" y="520"/>
      <point x="424" y="514"/>
      <point x="417" y="503" type="curve" smooth="yes"/>
      <point x="217" y="196" type="line"/>
      <point x="278" y="178" type="line"/>
      <point x="278" y="493" type="line" smooth="yes"/>
      <point x="278" y="508"/>
      <point x="266" y="520"/>
      <point x="251" y="520" type="curve" smooth="yes"/>
      <point x="72" y="520" type="line" smooth="yes"/>
      <point x="57" y="520"/>
      <point x="45" y="508"/>
      <point x="45" y="493" type="curve" smooth="yes"/>
      <point x="45" y="27" type="line" smooth="yes"/>
      <point x="45" y="12"/>
      <point x="57" y="0"/>
      <point x="72" y="0" type="curve" smooth="yes"/>
    </contour>
    <contour>
      <point x="352" y="520" type="move" name="top"/>
    </contour>
    <contour>
      <point x="643" y="0" type="move" name="bottomright"/>
    </contour>
  </outline>
</glyph>
<glyph name="uni043A" format="1">
  <advance width="644"/>
  <unicode hex="043A"/>
  <outline>
    <contour>
      <point x="251" y="0" type="line" smooth="yes"/>
      <point x="266" y="0"/>
      <point x="278" y="12"/>
      <point x="278" y="27" type="curve" smooth="yes"/>
      <point x="278" y="174" type="line"/>
      <point x="306" y="174" type="line" smooth="yes"/>
      <point x="324" y="174"/>
      <point x="335" y="163"/>
      <point x="345" y="139" type="curve"/>
      <point x="390" y="17" type="line" smooth="yes"/>
      <point x="394" y="5"/>
      <point x="403" y="0"/>
      <point x="421" y="0" type="curve" smooth="yes"/>
      <point x="598" y="0" type="line" smooth="yes"/>
      <point x="607" y="0"/>
      <point x="614" y="7"/>
      <point x="614" y="16" type="curve" smooth="yes"/>
      <point x="614" y="19"/>
      <point x="613" y="22"/>
      <point x="612" y="24" type="curve"/>
      <point x="536" y="224" type="line" smooth="yes"/>
      <point x="505" y="306"/>
      <point x="460" y="343"/>
      <point x="392" y="343" type="curve" smooth="yes"/>
      <point x="278" y="343" type="line"/>
      <point x="278" y="493" type="line" smooth="yes"/>
      <point x="278" y="508"/>
      <point x="266" y="520"/>
      <point x="251" y="520" type="curve" smooth="yes"/>
      <point x="72" y="520" type="line" smooth="yes"/>
      <point x="57" y="520"/>
      <point x="45" y="508"/>
      <point x="45" y="493" type="curve" smooth="yes"/>
      <point x="45" y="27" type="line" smooth="yes"/>
      <point x="45" y="12"/>
      <point x="57" y="0"/>
      <point x="72" y="0" type="curve" smooth="yes"/>
    </contour>
    <contour>
      <point x="502" y="239" type="line"/>
      <point x="597" y="492" type="line" smooth="yes"/>
      <point x="599" y="498"/>
      <point x="600" y="501"/>
      <point x="600" y="504" type="curve" smooth="yes"/>
      <point x="600" y="513"/>
      <point x="593" y="520"/>
      <point x="584" y="520" type="curve" smooth="yes"/>
      <point x="392" y="520" type="line" smooth="yes"/>
      <point x="376" y="520"/>
      <point x="366" y="513"/>
      <point x="363" y="504" type="curve" smooth="yes"/>
      <point x="285" y="239" type="line"/>
    </contour>
    <contour>
      <point x="322" y="520" type="move" name="top"/>
    </contour>
    <contour>
      <point x="584" y="0" type="move" name="bottomright"/>
    </contour>
  </outline>
</glyph>
<glyph name="uni043B" format="1">
  <advance width="663"/>
  <unicode hex="043B"/>
  <outline>
    <contour>
      <point x="281" y="0"/>
      <point x="321" y="64"/>
      <point x="321" y="316" type="curve" smooth="yes"/>
      <point x="321" y="345" type="line"/>
      <point x="378" y="345" type="line"/>
      <point x="378" y="27" type="line" smooth="yes"/>
      <point x="378" y="12"/>
      <point x="390" y="0"/>
      <point x="405" y="0" type="curve" smooth="yes"/>
      <point x="584" y="0" type="line" smooth="yes"/>
      <point x="599" y="0"/>
      <point x="611" y="12"/>
      <point x="611" y="27" type="curve" smooth="yes"/>
      <point x="611" y="493" type="line" smooth="yes"/>
      <point x="611" y="508"/>
      <point x="599" y="520"/>
      <point x="584" y="520" type="curve" smooth="yes"/>
      <point x="128" y="520" type="line" smooth="yes"/>
      <point x="113" y="520"/>
      <point x="101" y="508"/>
      <point x="101" y="493" type="curve" smooth="yes"/>
      <point x="101" y="341" type="line" smooth="yes"/>
      <point x="101" y="252"/>
      <point x="104" y="194"/>
      <point x="51" y="185" type="curve" smooth="yes"/>
      <point x="35" y="182"/>
      <point x="24" y="173"/>
      <point x="24" y="158" type="curve" smooth="yes"/>
      <point x="24" y="27" type="line" smooth="yes"/>
      <point x="24" y="12"/>
      <point x="36" y="0"/>
      <point x="51" y="0" type="curve" smooth="yes"/>
    </contour>
  </outline>
</glyph>
<glyph name="uni043C" format="1">
  <advance width="760"/>
  <unicode hex="043C"/>
  <outline>
    <contour>
      <point x="253" y="0" type="line" smooth="yes"/>
      <point x="264" y="0"/>
      <point x="273" y="9"/>
      <point x="273" y="20" type="curve" smooth="yes"/>
      <point x="273" y="284" type="line"/>
      <point x="214" y="268" type="line"/>
      <point x="322" y="92" type="line" smooth="yes"/>
      <point x="330" y="79"/>
      <point x="339" y="73"/>
      <point x="350" y="73" type="curve" smooth="yes"/>
      <point x="402" y="73" type="line" smooth="yes"/>
      <point x="415" y="73"/>
      <point x="422" y="80"/>
      <point x="429" y="92" type="curve" smooth="yes"/>
      <point x="539" y="267" type="line"/>
      <point x="479" y="284" type="line"/>
      <point x="479" y="20" type="line" smooth="yes"/>
      <point x="479" y="9"/>
      <point x="487" y="0"/>
      <point x="499" y="0" type="curve" smooth="yes"/>
      <point x="687" y="0" type="line" smooth="yes"/>
      <point x="699" y="0"/>
      <point x="708" y="9"/>
      <point x="708" y="20" type="curve" smooth="yes"/>
      <point x="708" y="500" type="line" smooth="yes"/>
      <point x="708" y="511"/>
      <point x="699" y="520"/>
      <point x="687" y="520" type="curve" smooth="yes"/>
      <point x="516" y="520" type="line" smooth="yes"/>
      <point x="503" y="520"/>
      <point x="492" y="513"/>
      <point x="484" y="500" type="curve" smooth="yes"/>
      <point x="376" y="322" type="line"/>
      <point x="268" y="500" type="line" smooth="yes"/>
      <point x="260" y="513"/>
      <point x="249" y="520"/>
      <point x="236" y="520" type="curve" smooth="yes"/>
      <point x="65" y="520" type="line" smooth="yes"/>
      <point x="54" y="520"/>
      <point x="45" y="511"/>
      <point x="45" y="500" type="curve" smooth="yes"/>
      <point x="45" y="20" type="line" smooth="yes"/>
      <point x="45" y="9"/>
      <point x="54" y="0"/>
      <point x="65" y="0" type="curve" smooth="yes"/>
    </contour>
  </outline>
</glyph>
<glyph name="uni043D" format="1">
  <advance width="663"/>
  <unicode hex="043D"/>
  <outline>
    <contour>
      <point x="251" y="0" type="line" smooth="yes"/>
      <point x="266" y="0"/>
      <point x="278" y="12"/>
      <point x="278" y="27" type="curve" smooth="yes"/>
      <point x="278" y="175" type="line"/>
      <point x="378" y="175" type="line"/>
      <point x="378" y="27" type="line" smooth="yes"/>
      <point x="378" y="12"/>
      <point x="390" y="0"/>
      <point x="405" y="0" type="curve" smooth="yes"/>
      <point x="584" y="0" type="line" smooth="yes"/>
      <point x="599" y="0"/>
      <point x="611" y="12"/>
      <point x="611" y="27" type="curve" smooth="yes"/>
      <point x="611" y="493" type="line" smooth="yes"/>
      <point x="611" y="508"/>
      <point x="599" y="520"/>
      <point x="584" y="520" type="curve" smooth="yes"/>
      <point x="405" y="520" type="line" smooth="yes"/>
      <point x="390" y="520"/>
      <point x="378" y="508"/>
      <point x="378" y="493" type="curve" smooth="yes"/>
      <point x="378" y="350" type="line"/>
      <point x="278" y="350" type="line"/>
      <point x="278" y="493" type="line" smooth="yes"/>
      <point x="278" y="508"/>
      <point x="266" y="520"/>
      <point x="251" y="520" type="curve" smooth="yes"/>
      <point x="72" y="520" type="line" smooth="yes"/>
      <point x="57" y="520"/>
      <point x="45" y="508"/>
      <point x="45" y="493" type="curve" smooth="yes"/>
      <point x="45" y="27" type="line" smooth="yes"/>
      <point x="45" y="12"/>
      <point x="57" y="0"/>
      <point x="72" y="0" type="curve" smooth="yes"/>
    </contour>
  </outline>
</glyph>
<glyph name="uni0442" format="1">
  <advance width="579"/>
  <unicode hex="0442"/>
  <outline>
    <contour>
      <point x="377" y="0" type="line" smooth="yes"/>
      <point x="392" y="0"/>
      <point x="404" y="12"/>
      <point x="404" y="27" type="curve" smooth="yes"/>
      <point x="404" y="345" type="line"/>
      <point x="537" y="345" type="line" smooth="yes"/>
      <point x="552" y="345"/>
      <point x="564" y="357"/>
      <point x="564" y="372" type="curve" smooth="yes"/>
      <point x="564" y="493" type="line" smooth="yes"/>
      <point x="564" y="508"/>
      <point x="552" y="520"/>
      <point x="537" y="520" type="curve" smooth="yes"/>
      <point x="42" y="520" type="line" smooth="yes"/>
      <point x="27" y="520"/>
      <point x="15" y="508"/>
      <point x="15" y="493" type="curve" smooth="yes"/>
      <point x="15" y="372" type="line" smooth="yes"/>
      <point x="15" y="357"/>
      <point x="27" y="345"/>
      <point x="42" y="345" type="curve" smooth="yes"/>
      <point x="175" y="345" type="line"/>
      <point x="175" y="27" type="line" smooth="yes"/>
      <point x="175" y="12"/>
      <point x="187" y="0"/>
      <point x="202" y="0" type="curve" smooth="yes"/>
    </contour>
  </outline>
</glyph>
<glyph name="uni0443" format="1">
  <advance width="637"/>
  <unicode hex="0443"/>
  <outline>
    <contour>
      <point x="180" y="-191" type="line" smooth="yes"/>
      <point x="311" y="-191"/>
      <point x="365" y="-135"/>
      <point x="433" y="24" type="curve" smooth="yes"/>
      <point x="623" y="489" type="line" smooth="yes"/>
      <point x="625" y="493"/>
      <point x="624" y="496"/>
      <point x="624" y="499" type="curve" smooth="yes"/>
      <point x="624" y="510"/>
      <point x="613" y="520"/>
      <point x="601" y="520" type="curve" smooth="yes"/>
      <point x="440" y="520" type="line" smooth="yes"/>
      <point x="420" y="520"/>
      <point x="410" y="508"/>
      <point x="406" y="496" type="curve" smooth="yes"/>
      <point x="221" y="33" type="line" smooth="yes"/>
      <point x="205" y="-4"/>
      <point x="193" y="-16"/>
      <point x="163" y="-16" type="curve" smooth="yes"/>
      <point x="121" y="-16" type="line"/>
      <point x="106" y="-16"/>
      <point x="94" y="-28"/>
      <point x="94" y="-43" type="curve" smooth="yes"/>
      <point x="94" y="-164" type="line" smooth="yes"/>
      <point x="94" y="-179"/>
      <point x="106" y="-191"/>
      <point x="121" y="-191" type="curve" smooth="yes"/>
    </contour>
    <contour>
      <point x="363" y="156" type="line"/>
      <point x="239" y="496" type="line" smooth="yes"/>
      <point x="235" y="507"/>
      <point x="227" y="520"/>
      <point x="207" y="520" type="curve" smooth="yes"/>
      <point x="38" y="520" type="line" smooth="yes"/>
      <point x="25" y="520"/>
      <point x="15" y="509"/>
      <point x="13" y="496" type="curve" smooth="yes"/>
      <point x="13" y="494"/>
      <point x="13" y="492"/>
      <point x="14" y="489" type="curve" smooth="yes"/>
      <point x="221" y="7" type="line"/>
    </contour>
    <contour>
      <point x="329" y="520" type="move" name="top"/>
    </contour>
  </outline>
</glyph>
<glyph name="uni0444" format="1">
  <advance width="883"/>
  <unicode hex="0444"/>
  <outline>
    <contour>
      <point x="531" y="-190" type="line" smooth="yes"/>
      <point x="546" y="-190"/>
      <point x="558" y="-178"/>
      <point x="558" y="-163" type="curve" smooth="yes"/>
      <point x="558" y="0" type="line"/>
      <point x="745" y="0"/>
      <point x="842" y="73"/>
      <point x="852" y="213" type="curve" smooth="yes"/>
      <point x="854" y="244"/>
      <point x="854" y="276"/>
      <point x="852" y="307" type="curve" smooth="yes"/>
      <point x="842" y="447"/>
      <point x="733" y="520"/>
      <point x="558" y="520" type="curve"/>
      <point x="558" y="683" type="line" smooth="yes"/>
      <point x="558" y="698"/>
      <point x="546" y="710"/>
      <point x="531" y="710" type="curve" smooth="yes"/>
      <point x="352" y="710" type="line" smooth="yes"/>
      <point x="337" y="710"/>
      <point x="325" y="698"/>
      <point x="325" y="683" type="curve" smooth="yes"/>
      <point x="325" y="520" type="line"/>
      <point x="150" y="520"/>
      <point x="41" y="447"/>
      <point x="31" y="307" type="curve" smooth="yes"/>
      <point x="29" y="276"/>
      <point x="29" y="244"/>
      <point x="31" y="213" type="curve" smooth="yes"/>
      <point x="41" y="73"/>
      <point x="138" y="0"/>
      <point x="325" y="0" type="curve"/>
      <point x="325" y="-163" type="line" smooth="yes"/>
      <point x="325" y="-178"/>
      <point x="337" y="-190"/>
      <point x="352" y="-190" type="curve" smooth="yes"/>
    </contour>
    <contour>
      <point x="280" y="160"/>
      <point x="267" y="174"/>
      <point x="262" y="228" type="curve" smooth="yes"/>
      <point x="261" y="243"/>
      <point x="261" y="275"/>
      <point x="262" y="292" type="curve" smooth="yes"/>
      <point x="264" y="340"/>
      <point x="277" y="360"/>
      <point x="327" y="360" type="curve"/>
      <point x="327" y="160" type="line"/>
    </contour>
    <contour>
      <point x="556" y="360" type="line"/>
      <point x="603" y="360"/>
      <point x="619" y="343"/>
      <point x="621" y="292" type="curve" smooth="yes"/>
      <point x="622" y="275"/>
      <point x="622" y="243"/>
      <point x="621" y="228" type="curve" smooth="yes"/>
      <point x="617" y="177"/>
      <point x="606" y="160"/>
      <point x="556" y="160" type="curve"/>
    </contour>
  </outline>
</glyph>
<glyph name="uni0446" format="1">
  <advance width="689"/>
  <unicode hex="0446"/>
  <outline>
    <contour>
      <point x="650" y="-110" type="line" smooth="yes"/>
      <point x="665" y="-110"/>
      <point x="677" y="-98"/>
      <point x="677" y="-83" type="curve" smooth="yes"/>
      <point x="677" y="148" type="line" smooth="yes"/>
      <point x="677" y="163"/>
      <point x="665" y="175"/>
      <point x="650" y="175" type="curve" smooth="yes"/>
      <point x="611" y="175" type="line"/>
      <point x="611" y="493" type="line" smooth="yes"/>
      <point x="611" y="508"/>
      <point x="599" y="520"/>
      <point x="584" y="520" type="curve" smooth="yes"/>
      <point x="405" y="520" type="line" smooth="yes"/>
      <point x="390" y="520"/>
      <point x="378" y="508"/>
      <point x="378" y="493" type="curve" smooth="yes"/>
      <point x="378" y="175" type="line"/>
      <point x="278" y="175" type="line"/>
      <point x="278" y="493" type="line" smooth="yes"/>
      <point x="278" y="508"/>
      <point x="266" y="520"/>
      <point x="251" y="520" type="curve" smooth="yes"/>
      <point x="72" y="520" type="line" smooth="yes"/>
      <point x="57" y="520"/>
      <point x="45" y="508"/>
      <point x="45" y="493" type="curve" smooth="yes"/>
      <point x="45" y="27" type="line" smooth="yes"/>
      <point x="45" y="12"/>
      <point x="57" y="0"/>
      <point x="72" y="0" type="curve" smooth="yes"/>
      <point x="444" y="0" type="line"/>
      <point x="444" y="-83" type="line" smooth="yes"/>
      <point x="444" y="-98"/>
      <point x="456" y="-110"/>
      <point x="471" y="-110" type="curve" smooth="yes"/>
    </contour>
  </outline>
</glyph>
<glyph name="uni0447" format="1">
  <advance width="653"/>
  <unicode hex="0447"/>
  <outline>
    <contour>
      <point x="574" y="0" type="line" smooth="yes"/>
      <point x="589" y="0"/>
      <point x="601" y="12"/>
      <point x="601" y="27" type="curve" smooth="yes"/>
      <point x="601" y="493" type="line" smooth="yes"/>
      <point x="601" y="508"/>
      <point x="589" y="520"/>
      <point x="574" y="520" type="curve" smooth="yes"/>
      <point x="379" y="520" type="line" smooth="yes"/>
      <point x="364" y="520"/>
      <point x="352" y="508"/>
      <point x="352" y="493" type="curve" smooth="yes"/>
      <point x="352" y="347" type="line" smooth="yes"/>
      <point x="352" y="331"/>
      <point x="333" y="319"/>
      <point x="310" y="319" type="curve" smooth="yes"/>
      <point x="275" y="319"/>
      <point x="266" y="328"/>
      <point x="266" y="364" type="curve" smooth="yes"/>
      <point x="266" y="493" type="line" smooth="yes"/>
      <point x="266" y="508"/>
      <point x="254" y="520"/>
      <point x="239" y="520" type="curve" smooth="yes"/>
      <point x="53" y="520" type="line" smooth="yes"/>
      <point x="38" y="520"/>
      <point x="26" y="508"/>
      <point x="26" y="493" type="curve" smooth="yes"/>
      <point x="26" y="354" type="line" smooth="yes"/>
      <point x="26" y="190"/>
      <point x="98" y="120"/>
      <point x="230" y="120" type="curve" smooth="yes"/>
      <point x="282" y="120"/>
      <point x="325" y="131"/>
      <point x="352" y="148" type="curve"/>
      <point x="352" y="27" type="line" smooth="yes"/>
      <point x="352" y="12"/>
      <point x="364" y="0"/>
      <point x="379" y="0" type="curve" smooth="yes"/>
    </contour>
  </outline>
</glyph>
<glyph name="uni0448" format="1">
  <advance width="855"/>
  <unicode hex="0448"/>
  <outline>
    <contour>
      <point x="788" y="0" type="line" smooth="yes"/>
      <point x="803" y="0"/>
      <point x="815" y="12"/>
      <point x="815" y="27" type="curve" smooth="yes"/>
      <point x="815" y="493" type="line" smooth="yes"/>
      <point x="815" y="508"/>
      <point x="803" y="520"/>
      <point x="788" y="520" type="curve" smooth="yes"/>
      <point x="619" y="520" type="line" smooth="yes"/>
      <point x="604" y="520"/>
      <point x="592" y="508"/>
      <point x="592" y="493" type="curve" smooth="yes"/>
      <point x="592" y="175" type="line"/>
      <point x="534" y="175" type="line"/>
      <point x="534" y="493" type="line" smooth="yes"/>
      <point x="534" y="508"/>
      <point x="522" y="520"/>
      <point x="507" y="520" type="curve" smooth="yes"/>
      <point x="353" y="520" type="line" smooth="yes"/>
      <point x="338" y="520"/>
      <point x="326" y="508"/>
      <point x="326" y="493" type="curve" smooth="yes"/>
      <point x="326" y="175" type="line"/>
      <point x="268" y="175" type="line"/>
      <point x="268" y="493" type="line" smooth="yes"/>
      <point x="268" y="508"/>
      <point x="256" y="520"/>
      <point x="241" y="520" type="curve" smooth="yes"/>
      <point x="72" y="520" type="line" smooth="yes"/>
      <point x="57" y="520"/>
      <point x="45" y="508"/>
      <point x="45" y="493" type="curve" smooth="yes"/>
      <point x="45" y="27" type="line" smooth="yes"/>
      <point x="45" y="12"/>
      <point x="57" y="0"/>
      <point x="72" y="0" type="curve" smooth="yes"/>
    </contour>
  </outline>
</glyph>
<glyph name="uni0449" format="1">
  <advance width="892"/>
  <unicode hex="0449"/>
  <outline>
    <contour>
      <point x="853" y="-110" type="line" smooth="yes"/>
      <point x="868" y="-110"/>
      <point x="880" y="-98"/>
      <point x="880" y="-83" type="curve" smooth="yes"/>
      <point x="880" y="148" type="line" smooth="yes"/>
      <point x="880" y="163"/>
      <point x="868" y="175"/>
      <point x="853" y="175" type="curve" smooth="yes"/>
      <point x="815" y="175" type="line"/>
      <point x="815" y="493" type="line" smooth="yes"/>
      <point x="815" y="508"/>
      <point x="803" y="520"/>
      <point x="788" y="520" type="curve" smooth="yes"/>
      <point x="619" y="520" type="line" smooth="yes"/>
      <point x="604" y="520"/>
      <point x="592" y="508"/>
      <point x="592" y="493" type="curve" smooth="yes"/>
      <point x="592" y="175" type="line"/>
      <point x="534" y="175" type="line"/>
      <point x="534" y="493" type="line" smooth="yes"/>
      <point x="534" y="508"/>
      <point x="522" y="520"/>
      <point x="507" y="520" type="curve" smooth="yes"/>
      <point x="353" y="520" type="line" smooth="yes"/>
      <point x="338" y="520"/>
      <point x="326" y="508"/>
      <point x="326" y="493" type="curve" smooth="yes"/>
      <point x="326" y="175" type="line"/>
      <point x="268" y="175" type="line"/>
      <point x="268" y="493" type="line" smooth="yes"/>
      <point x="268" y="508"/>
      <point x="256" y="520"/>
      <point x="241" y="520" type="curve" smooth="yes"/>
      <point x="72" y="520" type="line" smooth="yes"/>
      <point x="57" y="520"/>
      <point x="45" y="508"/>
      <point x="45" y="493" type="curve" smooth="yes"/>
      <point x="45" y="27" type="line" smooth="yes"/>
      <point x="45" y="12"/>
      <point x="57" y="0"/>
      <point x="72" y="0" type="curve" smooth="yes"/>
      <point x="648" y="0" type="line"/>
      <point x="648" y="-83" type="line" smooth="yes"/>
      <point x="648" y="-98"/>
      <point x="660" y="-110"/>
      <point x="675" y="-110" type="curve" smooth="yes"/>
    </contour>
  </outline>
</glyph>
<glyph name="uni044A" format="1">
  <advance width="720"/>
  <unicode hex="044A"/>
  <outline>
    <contour>
      <point x="466" y="0" type="line" smooth="yes"/>
      <point x="599" y="0"/>
      <point x="690" y="68"/>
      <point x="690" y="184" type="curve" smooth="yes"/>
      <point x="690" y="300"/>
      <point x="599" y="369"/>
      <point x="466" y="369" type="curve" smooth="yes"/>
      <point x="386" y="369" type="line"/>
      <point x="386" y="493" type="line" smooth="yes"/>
      <point x="386" y="508"/>
      <point x="374" y="520"/>
      <point x="359" y="520" type="curve" smooth="yes"/>
      <point x="42" y="520" type="line" smooth="yes"/>
      <point x="27" y="520"/>
      <point x="15" y="508"/>
      <point x="15" y="493" type="curve" smooth="yes"/>
      <point x="15" y="372" type="line" smooth="yes"/>
      <point x="15" y="357"/>
      <point x="27" y="345"/>
      <point x="42" y="345" type="curve" smooth="yes"/>
      <point x="152" y="345" type="line"/>
      <point x="152" y="27" type="line" smooth="yes"/>
      <point x="152" y="12"/>
      <point x="164" y="0"/>
      <point x="179" y="0" type="curve" smooth="yes"/>
    </contour>
    <contour>
      <point x="381" y="220" type="line"/>
      <point x="446" y="220" type="line" smooth="yes"/>
      <point x="473" y="220"/>
      <point x="486" y="207"/>
      <point x="486" y="184" type="curve" smooth="yes"/>
      <point x="486" y="161"/>
      <point x="473" y="149"/>
      <point x="446" y="149" type="curve" smooth="yes"/>
      <point x="381" y="149" type="line"/>
    </contour>
  </outline>
</glyph>
<glyph name="uni044B" format="1">
  <advance width="921"/>
  <unicode hex="044B"/>
  <outline>
    <contour>
      <point x="359" y="0" type="line" smooth="yes"/>
      <point x="492" y="0"/>
      <point x="583" y="68"/>
      <point x="583" y="184" type="curve" smooth="yes"/>
      <point x="583" y="300"/>
      <point x="492" y="369"/>
      <point x="359" y="369" type="curve" smooth="yes"/>
      <point x="279" y="369" type="line"/>
      <point x="279" y="493" type="line" smooth="yes"/>
      <point x="279" y="508"/>
      <point x="267" y="520"/>
      <point x="252" y="520" type="curve" smooth="yes"/>
      <point x="72" y="520" type="line" smooth="yes"/>
      <point x="57" y="520"/>
      <point x="45" y="508"/>
      <point x="45" y="493" type="curve" smooth="yes"/>
      <point x="45" y="27" type="line" smooth="yes"/>
      <point x="45" y="12"/>
      <point x="57" y="0"/>
      <point x="72" y="0" type="curve" smooth="yes"/>
    </contour>
    <contour>
      <point x="274" y="220" type="line"/>
      <point x="339" y="220" type="line" smooth="yes"/>
      <point x="366" y="220"/>
      <point x="379" y="207"/>
      <point x="379" y="184" type="curve" smooth="yes"/>
      <point x="379" y="161"/>
      <point x="366" y="149"/>
      <point x="339" y="149" type="curve" smooth="yes"/>
      <point x="274" y="149" type="line"/>
    </contour>
    <component base="dotlessi" xOffset="591"/>
  </outline>
</glyph>
<glyph name="uni044C" format="1">
  <advance width="603"/>
  <unicode hex="044C"/>
  <outline>
    <contour>
      <point x="349" y="0" type="line" smooth="yes"/>
      <point x="482" y="0"/>
      <point x="573" y="68"/>
      <point x="573" y="184" type="curve" smooth="yes"/>
      <point x="573" y="300"/>
      <point x="482" y="369"/>
      <point x="349" y="369" type="curve" smooth="yes"/>
      <point x="269" y="369" type="line"/>
      <point x="269" y="493" type="line" smooth="yes"/>
      <point x="269" y="508"/>
      <point x="257" y="520"/>
      <point x="242" y="520" type="curve" smooth="yes"/>
      <point x="62" y="520" type="line" smooth="yes"/>
      <point x="47" y="520"/>
      <point x="35" y="508"/>
      <point x="35" y="493" type="curve" smooth="yes"/>
      <point x="35" y="27" type="line" smooth="yes"/>
      <point x="35" y="12"/>
      <point x="47" y="0"/>
      <point x="62" y="0" type="curve" smooth="yes"/>
    </contour>
    <contour>
      <point x="264" y="220" type="line"/>
      <point x="329" y="220" type="line" smooth="yes"/>
      <point x="356" y="220"/>
      <point x="369" y="207"/>
      <point x="369" y="184" type="curve" smooth="yes"/>
      <point x="369" y="161"/>
      <point x="356" y="149"/>
      <point x="329" y="149" type="curve" smooth="yes"/>
      <point x="264" y="149" type="line"/>
    </contour>
  </outline>
</glyph>
<glyph name="uni044D" format="1">
  <advance width="632"/>
  <unicode hex="044D"/>
  <outline>
    <contour>
      <point x="487" y="-10"/>
      <point x="583" y="66"/>
      <point x="593" y="213" type="curve" smooth="yes"/>
      <point x="595" y="243"/>
      <point x="595" y="277"/>
      <point x="593" y="307" type="curve" smooth="yes"/>
      <point x="583" y="454"/>
      <point x="476" y="530"/>
      <point x="303" y="530" type="curve" smooth="yes"/>
      <point x="101" y="530"/>
      <point x="52" y="427"/>
      <point x="42" y="368" type="curve"/>
      <point x="40" y="359"/>
      <point x="49" y="351"/>
      <point x="58" y="351" type="curve" smooth="yes"/>
      <point x="227" y="351" type="line" smooth="yes"/>
      <point x="244" y="351"/>
      <point x="248" y="358"/>
      <point x="255" y="363" type="curve"/>
      <point x="266" y="372"/>
      <point x="277" y="376"/>
      <point x="303" y="376" type="curve" smooth="yes"/>
      <point x="336" y="376"/>
      <point x="347" y="353"/>
      <point x="347" y="329" type="curve" smooth="yes"/>
      <point x="347" y="324" type="line"/>
      <point x="243" y="324" type="line" smooth="yes"/>
      <point x="231" y="324"/>
      <point x="222" y="313"/>
      <point x="222" y="302" type="curve" smooth="yes"/>
      <point x="222" y="219" type="line" smooth="yes"/>
      <point x="222" y="208"/>
      <point x="231" y="197"/>
      <point x="243" y="197" type="curve" smooth="yes"/>
      <point x="347" y="197" type="line"/>
      <point x="347" y="192" type="line" smooth="yes"/>
      <point x="347" y="158"/>
      <point x="336" y="142"/>
      <point x="303" y="142" type="curve" smooth="yes"/>
      <point x="276" y="142"/>
      <point x="265" y="148"/>
      <point x="257" y="154" type="curve" smooth="yes"/>
      <point x="250" y="159"/>
      <point x="246" y="166"/>
      <point x="229" y="166" type="curve" smooth="yes"/>
      <point x="54" y="166" type="line" smooth="yes"/>
      <point x="46" y="166"/>
      <point x="35" y="158"/>
      <point x="38" y="149" type="curve"/>
      <point x="48" y="90"/>
      <point x="94" y="-10"/>
      <point x="303" y="-10" type="curve" smooth="yes"/>
    </contour>
  </outline>
</glyph>
<glyph name="uni044E" format="1">
  <advance width="937"/>
  <unicode hex="044E"/>
  <outline>
    <contour>
      <point x="466" y="350" type="line"/>
      <point x="278" y="350" type="line"/>
      <point x="278" y="493" type="line" smooth="yes"/>
      <point x="278" y="508"/>
      <point x="266" y="520"/>
      <point x="251" y="520" type="curve" smooth="yes"/>
      <point x="72" y="520" type="line" smooth="yes"/>
      <point x="57" y="520"/>
      <point x="45" y="508"/>
      <point x="45" y="493" type="curve" smooth="yes"/>
      <point x="45" y="27" type="line" smooth="yes"/>
      <point x="45" y="12"/>
      <point x="57" y="0"/>
      <point x="72" y="0" type="curve" smooth="yes"/>
      <point x="251" y="0" type="line" smooth="yes"/>
      <point x="266" y="0"/>
      <point x="278" y="12"/>
      <point x="278" y="27" type="curve" smooth="yes"/>
      <point x="278" y="175" type="line"/>
      <point x="466" y="175" type="line"/>
    </contour>
    <component base="o" xOffset="295"/>
  </outline>
</glyph>
<glyph name="uni044F" format="1">
  <advance width="655"/>
  <unicode hex="044F"/>
  <outline>
    <contour>
      <point x="576" y="0" type="line" smooth="yes"/>
      <point x="591" y="0"/>
      <point x="603" y="12"/>
      <point x="603" y="27" type="curve" smooth="yes"/>
      <point x="603" y="493" type="line" smooth="yes"/>
      <point x="603" y="508"/>
      <point x="591" y="520"/>
      <point x="576" y="520" type="curve" smooth="yes"/>
      <point x="284" y="520" type="line" smooth="yes"/>
      <point x="151" y="520"/>
      <point x="60" y="452"/>
      <point x="60" y="336" type="curve" smooth="yes"/>
      <point x="60" y="220"/>
      <point x="151" y="156"/>
      <point x="307" y="156" type="curve"/>
      <point x="307" y="151" type="line"/>
      <point x="364" y="151" type="line"/>
      <point x="364" y="27" type="line" smooth="yes"/>
      <point x="364" y="12"/>
      <point x="376" y="0"/>
      <point x="391" y="0" type="curve" smooth="yes"/>
    </contour>
    <contour>
      <point x="242" y="0" type="line" smooth="yes"/>
      <point x="253" y="0"/>
      <point x="260" y="5"/>
      <point x="264" y="15" type="curve" smooth="yes"/>
      <point x="329" y="166" type="line"/>
      <point x="140" y="206" type="line"/>
      <point x="43" y="31" type="line"/>
      <point x="41" y="27"/>
      <point x="40" y="23"/>
      <point x="40" y="20" type="curve" smooth="yes"/>
      <point x="40" y="9"/>
      <point x="49" y="0"/>
      <point x="62" y="0" type="curve" smooth="yes"/>
    </contour>
    <contour>
      <point x="277" y="300"/>
      <point x="264" y="313"/>
      <point x="264" y="336" type="curve" smooth="yes"/>
      <point x="264" y="359"/>
      <point x="277" y="371"/>
      <point x="304" y="371" type="curve" smooth="yes"/>
      <point x="369" y="371" type="line"/>
      <point x="369" y="300" type="line"/>
      <point x="304" y="300" type="line" smooth="yes"/>
    </contour>
  </outline>
</glyph>
<glyph name="uni0452" format="1">
  <advance width="716"/>
  <unicode hex="0452"/>
  <outline>
    <contour>
      <point x="383" y="-190" type="line" smooth="yes"/>
      <point x="536" y="-190"/>
      <point x="646" y="-114"/>
      <point x="646" y="29" type="curve" smooth="yes"/>
      <point x="646" y="273" type="line" smooth="yes"/>
      <point x="646" y="406"/>
      <point x="572" y="500"/>
      <point x="447" y="500" type="curve" smooth="yes"/>
      <point x="386" y="500"/>
      <point x="331" y="477"/>
      <point x="295" y="438" type="curve"/>
      <point x="295" y="538" type="line"/>
      <point x="389" y="538" type="line" smooth="yes"/>
      <point x="404" y="538"/>
      <point x="416" y="550"/>
      <point x="416" y="565" type="curve" smooth="yes"/>
      <point x="416" y="616" type="line" smooth="yes"/>
      <point x="416" y="631"/>
      <point x="404" y="643"/>
      <point x="389" y="643" type="curve" smooth="yes"/>
      <point x="295" y="643" type="line"/>
      <point x="295" y="683" type="line" smooth="yes"/>
      <point x="295" y="698"/>
      <point x="283" y="710"/>
      <point x="268" y="710" type="curve" smooth="yes"/>
      <point x="73" y="710" type="line" smooth="yes"/>
      <point x="58" y="710"/>
      <point x="46" y="698"/>
      <point x="46" y="683" type="curve" smooth="yes"/>
      <point x="46" y="643" type="line"/>
      <point x="20" y="643" type="line" smooth="yes"/>
      <point x="5" y="643"/>
      <point x="-7" y="631"/>
      <point x="-7" y="616" type="curve" smooth="yes"/>
      <point x="-7" y="565" type="line" smooth="yes"/>
      <point x="-7" y="550"/>
      <point x="5" y="538"/>
      <point x="20" y="538" type="curve" smooth="yes"/>
      <point x="46" y="538" type="line"/>
      <point x="46" y="27" type="line" smooth="yes"/>
      <point x="46" y="12"/>
      <point x="58" y="0"/>
      <point x="73" y="0" type="curve" smooth="yes"/>
      <point x="268" y="0" type="line" smooth="yes"/>
      <point x="283" y="0"/>
      <point x="295" y="12"/>
      <point x="295" y="27" type="curve" smooth="yes"/>
      <point x="295" y="266" type="line" smooth="yes"/>
      <point x="295" y="302"/>
      <point x="314" y="321"/>
      <point x="346" y="321" type="curve" smooth="yes"/>
      <point x="378" y="321"/>
      <point x="396" y="302"/>
      <point x="396" y="266" type="curve" smooth="yes"/>
      <point x="396" y="35" type="line" smooth="yes"/>
      <point x="396" y="2"/>
      <point x="382" y="-15"/>
      <point x="353" y="-15" type="curve" smooth="yes"/>
      <point x="333" y="-15" type="line" smooth="yes"/>
      <point x="318" y="-15"/>
      <point x="306" y="-27"/>
      <point x="306" y="-42" type="curve" smooth="yes"/>
      <point x="306" y="-163" type="line" smooth="yes"/>
      <point x="306" y="-178"/>
      <point x="318" y="-190"/>
      <point x="333" y="-190" type="curve" smooth="yes"/>
    </contour>
  </outline>
</glyph>
<glyph name="uni0454" format="1">
  <advance width="632"/>
  <unicode hex="0454"/>
  <outline>
    <contour>
      <point x="513" y="-10"/>
      <point x="579" y="66"/>
      <point x="594" y="149" type="curve"/>
      <point x="595" y="158"/>
      <point x="587" y="166"/>
      <point x="578" y="166" type="curve" smooth="yes"/>
      <point x="403" y="166" type="line" smooth="yes"/>
      <point x="394" y="166"/>
      <point x="387" y="164"/>
      <point x="383" y="161" type="curve" smooth="yes"/>
      <point x="365" y="147"/>
      <point x="360" y="142"/>
      <point x="329" y="142" type="curve" smooth="yes"/>
      <point x="297" y="142"/>
      <point x="285" y="156"/>
      <point x="285" y="191" type="curve" smooth="yes"/>
      <point x="285" y="197" type="line"/>
      <point x="389" y="197" type="line" smooth="yes"/>
      <point x="401" y="197"/>
      <point x="410" y="207"/>
      <point x="410" y="219" type="curve" smooth="yes"/>
      <point x="410" y="302" type="line" smooth="yes"/>
      <point x="410" y="314"/>
      <point x="401" y="324"/>
      <point x="389" y="324" type="curve" smooth="yes"/>
      <point x="285" y="324" type="line"/>
      <point x="285" y="328" type="line" smooth="yes"/>
      <point x="285" y="359"/>
      <point x="301" y="376"/>
      <point x="329" y="376" type="curve" smooth="yes"/>
      <point x="355" y="376"/>
      <point x="365" y="371"/>
      <point x="385" y="356" type="curve" smooth="yes"/>
      <point x="389" y="353"/>
      <point x="396" y="351"/>
      <point x="405" y="351" type="curve" smooth="yes"/>
      <point x="574" y="351" type="line" smooth="yes"/>
      <point x="584" y="351"/>
      <point x="592" y="357"/>
      <point x="590" y="368" type="curve" smooth="yes"/>
      <point x="575" y="451"/>
      <point x="508" y="530"/>
      <point x="329" y="530" type="curve" smooth="yes"/>
      <point x="154" y="530"/>
      <point x="48" y="452"/>
      <point x="39" y="307" type="curve" smooth="yes"/>
      <point x="38" y="296"/>
      <point x="38" y="224"/>
      <point x="39" y="213" type="curve" smooth="yes"/>
      <point x="49" y="64"/>
      <point x="146" y="-10"/>
      <point x="329" y="-10" type="curve" smooth="yes"/>
    </contour>
  </outline>
</glyph>
<glyph name="uni0459" format="1">
  <advance width="947"/>
  <unicode hex="0459"/>
  <outline>
    <contour>
      <point x="693" y="0" type="line" smooth="yes"/>
      <point x="826" y="0"/>
      <point x="917" y="68"/>
      <point x="917" y="184" type="curve" smooth="yes"/>
      <point x="917" y="300"/>
      <point x="826" y="369"/>
      <point x="693" y="369" type="curve" smooth="yes"/>
      <point x="613" y="369" type="line"/>
      <point x="613" y="493" type="line" smooth="yes"/>
      <point x="613" y="508"/>
      <point x="601" y="520"/>
      <point x="586" y="520" type="curve" smooth="yes"/>
      <point x="128" y="520" type="line" smooth="yes"/>
      <point x="113" y="520"/>
      <point x="101" y="508"/>
      <point x="101" y="493" type="curve" smooth="yes"/>
      <point x="101" y="341" type="line" smooth="yes"/>
      <point x="101" y="232"/>
      <point x="99" y="194"/>
      <point x="51" y="185" type="curve" smooth="yes"/>
      <point x="35" y="182"/>
      <point x="24" y="173"/>
      <point x="24" y="158" type="curve" smooth="yes"/>
      <point x="24" y="27" type="line" smooth="yes"/>
      <point x="24" y="12"/>
      <point x="36" y="0"/>
      <point x="51" y="0" type="curve" smooth="yes"/>
      <point x="281" y="0"/>
      <point x="321" y="64"/>
      <point x="321" y="316" type="curve" smooth="yes"/>
      <point x="321" y="345" type="line"/>
      <point x="379" y="345" type="line"/>
      <point x="379" y="27" type="line" smooth="yes"/>
      <point x="379" y="12"/>
      <point x="391" y="0"/>
      <point x="406" y="0" type="curve" smooth="yes"/>
    </contour>
    <contour>
      <point x="608" y="220" type="line"/>
      <point x="673" y="220" type="line" smooth="yes"/>
      <point x="700" y="220"/>
      <point x="713" y="207"/>
      <point x="713" y="184" type="curve" smooth="yes"/>
      <point x="713" y="161"/>
      <point x="700" y="149"/>
      <point x="673" y="149" type="curve" smooth="yes"/>
      <point x="608" y="149" type="line"/>
    </contour>
  </outline>
</glyph>
<glyph name="uni045A" format="1">
  <advance width="945"/>
  <unicode hex="045A"/>
  <outline>
    <contour>
      <point x="251" y="0" type="line" smooth="yes"/>
      <point x="266" y="0"/>
      <point x="278" y="12"/>
      <point x="278" y="27" type="curve" smooth="yes"/>
      <point x="278" y="175" type="line"/>
      <point x="378" y="175" type="line"/>
      <point x="378" y="27" type="line" smooth="yes"/>
      <point x="378" y="12"/>
      <point x="390" y="0"/>
      <point x="405" y="0" type="curve" smooth="yes"/>
      <point x="691" y="0" type="line" smooth="yes"/>
      <point x="824" y="0"/>
      <point x="915" y="68"/>
      <point x="915" y="184" type="curve" smooth="yes"/>
      <point x="915" y="300"/>
      <point x="824" y="369"/>
      <point x="691" y="369" type="curve" smooth="yes"/>
      <point x="611" y="369" type="line"/>
      <point x="611" y="493" type="line" smooth="yes"/>
      <point x="611" y="508"/>
      <point x="599" y="520"/>
      <point x="584" y="520" type="curve" smooth="yes"/>
      <point x="405" y="520" type="line" smooth="yes"/>
      <point x="390" y="520"/>
      <point x="378" y="508"/>
      <point x="378" y="493" type="curve" smooth="yes"/>
      <point x="378" y="350" type="line"/>
      <point x="278" y="350" type="line"/>
      <point x="278" y="493" type="line" smooth="yes"/>
      <point x="278" y="508"/>
      <point x="266" y="520"/>
      <point x="251" y="520" type="curve" smooth="yes"/>
      <point x="72" y="520" type="line" smooth="yes"/>
      <point x="57" y="520"/>
      <point x="45" y="508"/>
      <point x="45" y="493" type="curve" smooth="yes"/>
      <point x="45" y="27" type="line" smooth="yes"/>
      <point x="45" y="12"/>
      <point x="57" y="0"/>
      <point x="72" y="0" type="curve" smooth="yes"/>
    </contour>
    <contour>
      <point x="606" y="220" type="line"/>
      <point x="671" y="220" type="line" smooth="yes"/>
      <point x="698" y="220"/>
      <point x="711" y="207"/>
      <point x="711" y="184" type="curve" smooth="yes"/>
      <point x="711" y="161"/>
      <point x="698" y="149"/>
      <point x="671" y="149" type="curve" smooth="yes"/>
      <point x="606" y="149" type="line"/>
    </contour>
  </outline>
</glyph>
<glyph name="uni045B" format="1">
  <advance width="718"/>
  <unicode hex="045B"/>
  <outline>
    <contour>
      <point x="268" y="0" type="line" smooth="yes"/>
      <point x="283" y="0"/>
      <point x="295" y="12"/>
      <point x="295" y="27" type="curve" smooth="yes"/>
      <point x="295" y="266" type="line" smooth="yes"/>
      <point x="295" y="302"/>
      <point x="314" y="321"/>
      <point x="346" y="321" type="curve" smooth="yes"/>
      <point x="378" y="321"/>
      <point x="396" y="302"/>
      <point x="396" y="266" type="curve" smooth="yes"/>
      <point x="396" y="27" type="line" smooth="yes"/>
      <point x="396" y="12"/>
      <point x="408" y="0"/>
      <point x="423" y="0" type="curve" smooth="yes"/>
      <point x="619" y="0" type="line" smooth="yes"/>
      <point x="634" y="0"/>
      <point x="646" y="12"/>
      <point x="646" y="27" type="curve" smooth="yes"/>
      <point x="646" y="273" type="line" smooth="yes"/>
      <point x="646" y="406"/>
      <point x="572" y="500"/>
      <point x="447" y="500" type="curve" smooth="yes"/>
      <point x="386" y="500"/>
      <point x="331" y="477"/>
      <point x="295" y="438" type="curve"/>
      <point x="295" y="538" type="line"/>
      <point x="389" y="538" type="line" smooth="yes"/>
      <point x="404" y="538"/>
      <point x="416" y="550"/>
      <point x="416" y="565" type="curve" smooth="yes"/>
      <point x="416" y="616" type="line" smooth="yes"/>
      <point x="416" y="631"/>
      <point x="404" y="643"/>
      <point x="389" y="643" type="curve" smooth="yes"/>
      <point x="295" y="643" type="line"/>
      <point x="295" y="683" type="line" smooth="yes"/>
      <point x="295" y="698"/>
      <point x="283" y="710"/>
      <point x="268" y="710" type="curve" smooth="yes"/>
      <point x="73" y="710" type="line" smooth="yes"/>
      <point x="58" y="710"/>
      <point x="46" y="698"/>
      <point x="46" y="683" type="curve" smooth="yes"/>
      <point x="46" y="643" type="line"/>
      <point x="20" y="643" type="line" smooth="yes"/>
      <point x="5" y="643"/>
      <point x="-7" y="631"/>
      <point x="-7" y="616" type="curve" smooth="yes"/>
      <point x="-7" y="565" type="line" smooth="yes"/>
      <point x="-7" y="550"/>
      <point x="5" y="538"/>
      <point x="20" y="538" type="curve" smooth="yes"/>
      <point x="46" y="538" type="line"/>
      <point x="46" y="27" type="line" smooth="yes"/>
      <point x="46" y="12"/>
      <point x="58" y="0"/>
      <point x="73" y="0" type="curve" smooth="yes"/>
    </contour>
  </outline>
</glyph>
<glyph name="uni045F" format="1">
  <advance width="663"/>
  <unicode hex="045F"/>
  <outline>
    <contour>
      <point x="417" y="-110" type="line" smooth="yes"/>
      <point x="432" y="-110"/>
      <point x="444" y="-98"/>
      <point x="444" y="-83" type="curve" smooth="yes"/>
      <point x="444" y="0" type="line"/>
      <point x="584" y="0" type="line" smooth="yes"/>
      <point x="599" y="0"/>
      <point x="611" y="12"/>
      <point x="611" y="27" type="curve" smooth="yes"/>
      <point x="611" y="493" type="line" smooth="yes"/>
      <point x="611" y="508"/>
      <point x="599" y="520"/>
      <point x="584" y="520" type="curve" smooth="yes"/>
      <point x="405" y="520" type="line" smooth="yes"/>
      <point x="390" y="520"/>
      <point x="378" y="508"/>
      <point x="378" y="493" type="curve" smooth="yes"/>
      <point x="378" y="175" type="line"/>
      <point x="278" y="175" type="line"/>
      <point x="278" y="493" type="line" smooth="yes"/>
      <point x="278" y="508"/>
      <point x="266" y="520"/>
      <point x="251" y="520" type="curve" smooth="yes"/>
      <point x="72" y="520" type="line" smooth="yes"/>
      <point x="57" y="520"/>
      <point x="45" y="508"/>
      <point x="45" y="493" type="curve" smooth="yes"/>
      <point x="45" y="27" type="line" smooth="yes"/>
      <point x="45" y="12"/>
      <point x="57" y="0"/>
      <point x="72" y="0" type="curve" smooth="yes"/>
      <point x="212" y="0" type="line"/>
      <point x="212" y="-83" type="line" smooth="yes"/>
      <point x="212" y="-98"/>
      <point x="224" y="-110"/>
      <point x="239" y="-110" type="curve" smooth="yes"/>
    </contour>
  </outline>
</glyph>
<glyph name="uni0462" format="1">
  <advance width="781"/>
  <unicode hex="0462"/>
  <outline>
    <contour>
      <point x="532" y="520" type="line"/>
      <point x="545" y="520"/>
      <point x="555" y="530"/>
      <point x="555" y="543" type="curve" smooth="yes"/>
      <point x="555" y="620" type="line" smooth="yes"/>
      <point x="555" y="633"/>
      <point x="548" y="643"/>
      <point x="532" y="643" type="curve"/>
      <point x="40" y="643" type="line"/>
      <point x="24" y="643"/>
      <point x="17" y="633"/>
      <point x="17" y="620" type="curve" smooth="yes"/>
      <point x="17" y="543" type="line" smooth="yes"/>
      <point x="17" y="530"/>
      <point x="27" y="520"/>
      <point x="40" y="520" type="curve"/>
    </contour>
    <contour>
      <point x="446" y="0" type="line" smooth="yes"/>
      <point x="638" y="0"/>
      <point x="752" y="84"/>
      <point x="752" y="245" type="curve" smooth="yes"/>
      <point x="752" y="406"/>
      <point x="639" y="482"/>
      <point x="446" y="482" type="curve" smooth="yes"/>
      <point x="381" y="482" type="line"/>
      <point x="381" y="683" type="line" smooth="yes"/>
      <point x="381" y="698"/>
      <point x="369" y="710"/>
      <point x="354" y="710" type="curve" smooth="yes"/>
      <point x="158" y="710" type="line" smooth="yes"/>
      <point x="143" y="710"/>
      <point x="131" y="698"/>
      <point x="131" y="683" type="curve" smooth="yes"/>
      <point x="131" y="27" type="line" smooth="yes"/>
      <point x="131" y="12"/>
      <point x="143" y="0"/>
      <point x="158" y="0" type="curve" smooth="yes"/>
    </contour>
    <contour>
      <point x="381" y="297" type="line"/>
      <point x="446" y="297" type="line" smooth="yes"/>
      <point x="477" y="297"/>
      <point x="492" y="279"/>
      <point x="492" y="243" type="curve" smooth="yes"/>
      <point x="492" y="212"/>
      <point x="478" y="186"/>
      <point x="446" y="186" type="curve" smooth="yes"/>
      <point x="381" y="186" type="line"/>
    </contour>
  </outline>
</glyph>
<glyph name="uni046A" format="1">
  <advance width="974"/>
  <unicode hex="046A"/>
  <outline>
    <contour>
      <point x="215" y="0" type="line" smooth="yes"/>
      <point x="240" y="0"/>
      <point x="252" y="7"/>
      <point x="256" y="23" type="curve"/>
      <point x="296" y="160" type="line" smooth="yes"/>
      <point x="305" y="192"/>
      <point x="323" y="208"/>
      <point x="348" y="208" type="curve" smooth="yes"/>
      <point x="362" y="208" type="line"/>
      <point x="362" y="27" type="line" smooth="yes"/>
      <point x="362" y="12"/>
      <point x="374" y="0"/>
      <point x="389" y="0" type="curve" smooth="yes"/>
      <point x="585" y="0" type="line" smooth="yes"/>
      <point x="600" y="0"/>
      <point x="612" y="12"/>
      <point x="612" y="27" type="curve" smooth="yes"/>
      <point x="612" y="208" type="line"/>
      <point x="626" y="208" type="line" smooth="yes"/>
      <point x="651" y="208"/>
      <point x="669" y="192"/>
      <point x="678" y="160" type="curve" smooth="yes"/>
      <point x="717" y="23" type="line" smooth="yes"/>
      <point x="721" y="7"/>
      <point x="733" y="0"/>
      <point x="758" y="0" type="curve" smooth="yes"/>
      <point x="960" y="0" type="line" smooth="yes"/>
      <point x="977" y="0"/>
      <point x="984" y="19"/>
      <point x="979" y="33" type="curve" smooth="yes"/>
      <point x="910" y="242" type="line" smooth="yes"/>
      <point x="871" y="361"/>
      <point x="796" y="400"/>
      <point x="682" y="400" type="curve" smooth="yes"/>
      <point x="674" y="400" type="line"/>
      <point x="674" y="352" type="line"/>
      <point x="964" y="662" type="line" smooth="yes"/>
      <point x="971" y="669"/>
      <point x="972" y="673"/>
      <point x="972" y="678" type="curve" smooth="yes"/>
      <point x="972" y="689"/>
      <point x="961" y="700"/>
      <point x="949" y="700" type="curve" smooth="yes"/>
      <point x="25" y="700" type="line" smooth="yes"/>
      <point x="13" y="700"/>
      <point x="4" y="689"/>
      <point x="4" y="677" type="curve" smooth="yes"/>
      <point x="4" y="672"/>
      <point x="5" y="668"/>
      <point x="8" y="665" type="curve"/>
      <point x="285" y="353" type="line"/>
      <point x="285" y="400" type="line"/>
      <point x="281" y="400" type="line"/>
      <point x="175" y="400"/>
      <point x="102" y="361"/>
      <point x="63" y="242" type="curve" smooth="yes"/>
      <point x="-6" y="33" type="line" smooth="yes"/>
      <point x="-10" y="20"/>
      <point x="-5" y="0"/>
      <point x="13" y="0" type="curve" smooth="yes"/>
    </contour>
    <contour>
      <point x="405" y="500" type="line"/>
      <point x="562" y="500" type="line"/>
      <point x="482" y="403" type="line"/>
    </contour>
  </outline>
</glyph>
<glyph name="uni0472" format="1">
  <advance width="742"/>
  <unicode hex="0472"/>
  <outline>
    <contour>
      <point x="280" y="289" type="line"/>
      <point x="462" y="289" type="line"/>
      <point x="462" y="411" type="line"/>
      <point x="280" y="411" type="line"/>
    </contour>
    <component base="O"/>
  </outline>
</glyph>
<glyph name="uni0474" format="1">
  <advance width="706"/>
  <unicode hex="0474"/>
  <outline>
    <contour>
      <point x="477" y="0" type="line" smooth="yes"/>
      <point x="502" y="0"/>
      <point x="517" y="16"/>
      <point x="522" y="33" type="curve" smooth="yes"/>
      <point x="634" y="414" type="line" smooth="yes"/>
      <point x="644" y="450"/>
      <point x="660" y="468"/>
      <point x="682" y="468" type="curve" smooth="yes"/>
      <point x="688" y="468" type="line" smooth="yes"/>
      <point x="703" y="468"/>
      <point x="715" y="480"/>
      <point x="715" y="495" type="curve" smooth="yes"/>
      <point x="716" y="672" type="line" smooth="yes"/>
      <point x="716" y="688"/>
      <point x="705" y="700"/>
      <point x="690" y="700" type="curve" smooth="yes"/>
      <point x="664" y="700" type="line" smooth="yes"/>
      <point x="537" y="700"/>
      <point x="460" y="635"/>
      <point x="419" y="492" type="curve" smooth="yes"/>
      <point x="363" y="295" type="line"/>
      <point x="268" y="667" type="line"/>
      <point x="263" y="684"/>
      <point x="248" y="700"/>
      <point x="223" y="700" type="curve" smooth="yes"/>
      <point x="37" y="700" type="line" smooth="yes"/>
      <point x="20" y="700"/>
      <point x="12" y="685"/>
      <point x="16" y="671" type="curve" smooth="yes"/>
      <point x="204" y="33" type="line" smooth="yes"/>
      <point x="209" y="16"/>
      <point x="224" y="0"/>
      <point x="249" y="0" type="curve" smooth="yes"/>
    </contour>
  </outline>
</glyph>
<glyph name="product" format="1">
  <advance width="702"/>
  <unicode hex="220F"/>
  <outline>
    <contour>
      <point x="243" y="-200" type="line" smooth="yes"/>
      <point x="258" y="-200"/>
      <point x="270" y="-188"/>
      <point x="270" y="-173" type="curve" smooth="yes"/>
      <point x="270" y="468" type="line"/>
      <point x="432" y="468" type="line"/>
      <point x="432" y="-173" type="line" smooth="yes"/>
      <point x="432" y="-188"/>
      <point x="444" y="-200"/>
      <point x="459" y="-200" type="curve" smooth="yes"/>
      <point x="618" y="-200" type="line" smooth="yes"/>
      <point x="633" y="-200"/>
      <point x="645" y="-188"/>
      <point x="645" y="-173" type="curve" smooth="yes"/>
      <point x="645" y="673" type="line" smooth="yes"/>
      <point x="645" y="688"/>
      <point x="633" y="700"/>
      <point x="618" y="700" type="curve" smooth="yes"/>
      <point x="84" y="700" type="line" smooth="yes"/>
      <point x="69" y="700"/>
      <point x="57" y="688"/>
      <point x="57" y="673" type="curve" smooth="yes"/>
      <point x="57" y="-173" type="line" smooth="yes"/>
      <point x="57" y="-189"/>
      <point x="69" y="-200"/>
      <point x="84" y="-200" type="curve" smooth="yes"/>
    </contour>
  </outline>
</glyph>
<glyph name="minus" format="1">
  <advance width="642"/>
  <unicode hex="2212"/>
  <outline>
    <contour>
      <point x="563" y="219" type="line" smooth="yes"/>
      <point x="578" y="219"/>
      <point x="590" y="231"/>
      <point x="590" y="246" type="curve" smooth="yes"/>
      <point x="590" y="355" type="line" smooth="yes"/>
      <point x="590" y="370"/>
      <point x="578" y="382"/>
      <point x="563" y="382" type="curve" smooth="yes"/>
      <point x="79" y="382" type="line" smooth="yes"/>
      <point x="64" y="382"/>
      <point x="52" y="370"/>
      <point x="52" y="355" type="curve" smooth="yes"/>
      <point x="52" y="246" type="line" smooth="yes"/>
      <point x="52" y="231"/>
      <point x="64" y="219"/>
      <point x="79" y="219" type="curve" smooth="yes"/>
    </contour>
  </outline>
</glyph>
<glyph name="radical" format="1">
  <advance width="785"/>
  <unicode hex="221A"/>
  <outline>
    <contour>
      <point x="347" y="0" type="line" smooth="yes"/>
      <point x="367" y="0"/>
      <point x="375" y="11"/>
      <point x="380" y="25" type="curve" smooth="yes"/>
      <point x="599" y="700" type="line"/>
      <point x="742" y="700" type="line" smooth="yes"/>
      <point x="757" y="700"/>
      <point x="769" y="712"/>
      <point x="769" y="727" type="curve" smooth="yes"/>
      <point x="769" y="833" type="line" smooth="yes"/>
      <point x="769" y="848"/>
      <point x="757" y="860"/>
      <point x="742" y="860" type="curve" smooth="yes"/>
      <point x="479" y="860" type="line" smooth="yes"/>
      <point x="459" y="860"/>
      <point x="450" y="847"/>
      <point x="446" y="836" type="curve"/>
      <point x="277" y="263" type="line"/>
      <point x="197" y="496" type="line" smooth="yes"/>
      <point x="193" y="507"/>
      <point x="184" y="520"/>
      <point x="164" y="520" type="curve" smooth="yes"/>
      <point x="35" y="520" type="line" smooth="yes"/>
      <point x="22" y="520"/>
      <point x="11" y="509"/>
      <point x="11" y="496" type="curve" smooth="yes"/>
      <point x="11" y="494"/>
      <point x="11" y="492"/>
      <point x="12" y="489" type="curve"/>
      <point x="174" y="25" type="line"/>
      <point x="179" y="11"/>
      <point x="187" y="0"/>
      <point x="207" y="0" type="curve" smooth="yes"/>
    </contour>
  </outline>
</glyph>
<glyph name="integral" format="1">
  <advance width="459"/>
  <unicode hex="222B"/>
  <outline>
    <contour>
      <point x="97" y="-225" type="line" smooth="yes"/>
      <point x="217" y="-225"/>
      <point x="319" y="-147"/>
      <point x="319" y="-17" type="curve" smooth="yes"/>
      <point x="319" y="472" type="line" smooth="yes"/>
      <point x="319" y="513"/>
      <point x="342" y="535"/>
      <point x="382" y="535" type="curve" smooth="yes"/>
      <point x="413" y="535" type="line" smooth="yes"/>
      <point x="428" y="535"/>
      <point x="440" y="547"/>
      <point x="440" y="562" type="curve" smooth="yes"/>
      <point x="440" y="673" type="line" smooth="yes"/>
      <point x="440" y="688"/>
      <point x="428" y="700"/>
      <point x="413" y="700" type="curve" smooth="yes"/>
      <point x="362" y="700" type="line" smooth="yes"/>
      <point x="242" y="700"/>
      <point x="140" y="622"/>
      <point x="140" y="492" type="curve" smooth="yes"/>
      <point x="140" y="3" type="line"/>
      <point x="140" y="-38"/>
      <point x="117" y="-60"/>
      <point x="77" y="-60" type="curve" smooth="yes"/>
      <point x="46" y="-60" type="line" smooth="yes"/>
      <point x="31" y="-60"/>
      <point x="19" y="-72"/>
      <point x="19" y="-87" type="curve" smooth="yes"/>
      <point x="19" y="-198" type="line" smooth="yes"/>
      <point x="19" y="-213"/>
      <point x="31" y="-225"/>
      <point x="46" y="-225" type="curve" smooth="yes"/>
    </contour>
  </outline>
</glyph>
<glyph name="Ring" format="1">
  <advance width="300"/>
  <outline>
    <contour>
      <point x="205" y="740"/>
      <point x="250" y="780"/>
      <point x="250" y="835" type="curve" smooth="yes"/>
      <point x="250" y="890"/>
      <point x="205" y="930"/>
      <point x="150" y="930" type="curve" smooth="yes"/>
      <point x="95" y="930"/>
      <point x="50" y="890"/>
      <point x="50" y="835" type="curve" smooth="yes"/>
      <point x="50" y="780"/>
      <point x="95" y="740"/>
      <point x="150" y="740" type="curve" smooth="yes"/>
    </contour>
    <contour>
      <point x="133" y="805"/>
      <point x="120" y="818"/>
      <point x="120" y="835" type="curve" smooth="yes"/>
      <point x="120" y="852"/>
      <point x="133" y="865"/>
      <point x="150" y="865" type="curve" smooth="yes"/>
      <point x="167" y="865"/>
      <point x="180" y="852"/>
      <point x="180" y="835" type="curve" smooth="yes"/>
      <point x="180" y="818"/>
      <point x="167" y="805"/>
      <point x="150" y="805" type="curve" smooth="yes"/>
    </contour>
  </outline>
</glyph>
<glyph name="acutecomb.case" format="1">
  <advance width="557"/>
  <outline>
    <component base="uniF6C9" xOffset="30"/>
    <contour>
      <point x="279" y="920" type="move" name="top"/>
    </contour>
    <contour>
      <point x="190" y="700" type="move" name="_top"/>
    </contour>
  </outline>
</glyph>
<glyph name="brevecombcy.case" format="1">
  <advance width="594"/>
  <outline>
    <contour>
      <point x="431" y="741"/>
      <point x="494" y="809"/>
      <point x="494" y="901" type="curve" smooth="yes"/>
      <point x="494" y="911"/>
      <point x="487" y="920"/>
      <point x="475" y="920" type="curve" smooth="yes"/>
      <point x="356" y="920" type="line" smooth="yes"/>
      <point x="344" y="920"/>
      <point x="337" y="911"/>
      <point x="337" y="901" type="curve" smooth="yes"/>
      <point x="337" y="876"/>
      <point x="329" y="856"/>
      <point x="297" y="856" type="curve" smooth="yes"/>
      <point x="265" y="856"/>
      <point x="257" y="876"/>
      <point x="257" y="901" type="curve" smooth="yes"/>
      <point x="257" y="911"/>
      <point x="250" y="920"/>
      <point x="238" y="920" type="curve" smooth="yes"/>
      <point x="119" y="920" type="line" smooth="yes"/>
      <point x="106" y="920"/>
      <point x="100" y="911"/>
      <point x="100" y="901" type="curve" smooth="yes"/>
      <point x="100" y="809"/>
      <point x="163" y="741"/>
      <point x="297" y="741" type="curve" smooth="yes"/>
    </contour>
    <contour>
      <point x="297" y="700" type="move" name="_top"/>
    </contour>
  </outline>
</glyph>
<glyph name="brevecombcy" format="1">
  <advance width="594"/>
  <outline>
    <contour>
      <point x="431" y="586"/>
      <point x="494" y="654"/>
      <point x="494" y="746" type="curve" smooth="yes"/>
      <point x="494" y="756"/>
      <point x="487" y="765"/>
      <point x="475" y="765" type="curve" smooth="yes"/>
      <point x="356" y="765" type="line" smooth="yes"/>
      <point x="344" y="765"/>
      <point x="337" y="756"/>
      <point x="337" y="746" type="curve" smooth="yes"/>
      <point x="337" y="721"/>
      <point x="329" y="701"/>
      <point x="297" y="701" type="curve" smooth="yes"/>
      <point x="265" y="701"/>
      <point x="257" y="721"/>
      <point x="257" y="746" type="curve" smooth="yes"/>
      <point x="257" y="756"/>
      <point x="250" y="765"/>
      <point x="238" y="765" type="curve" smooth="yes"/>
      <point x="119" y="765" type="line" smooth="yes"/>
      <point x="106" y="765"/>
      <point x="100" y="756"/>
      <point x="100" y="746" type="curve" smooth="yes"/>
      <point x="100" y="654"/>
      <point x="163" y="586"/>
      <point x="297" y="586" type="curve" smooth="yes"/>
    </contour>
    <contour>
      <point x="297" y="520" type="move" name="_top"/>
    </contour>
  </outline>
</glyph>
<glyph name="gravecomb.case" format="1">
  <advance width="557"/>
  <outline>
    <component base="uniF6CE" xOffset="50"/>
    <contour>
      <point x="269" y="920" type="move" name="top"/>
    </contour>
    <contour>
      <point x="350" y="700" type="move" name="_top"/>
    </contour>
  </outline>
</glyph>
<glyph name="guillemotright.cap" format="1">
  <advance width="637"/>
  <outline>
    <contour>
      <point x="368" y="73"/>
      <point x="375" y="73"/>
      <point x="381" y="78" type="curve" smooth="yes"/>
      <point x="598" y="289" type="line" smooth="yes"/>
      <point x="606" y="296"/>
      <point x="612" y="305"/>
      <point x="612" y="317" type="curve" smooth="yes"/>
      <point x="612" y="383" type="line" smooth="yes"/>
      <point x="612" y="395"/>
      <point x="606" y="404"/>
      <point x="598" y="411" type="curve" smooth="yes"/>
      <point x="381" y="622" type="line" smooth="yes"/>
      <point x="375" y="627"/>
      <point x="368" y="627"/>
      <point x="367" y="627" type="curve" smooth="yes"/>
      <point x="355" y="627"/>
      <point x="345" y="617"/>
      <point x="345" y="605" type="curve" smooth="yes"/>
      <point x="345" y="464" type="line" smooth="yes"/>
      <point x="345" y="441"/>
      <point x="350" y="432"/>
      <point x="363" y="419" type="curve" smooth="yes"/>
      <point x="432" y="350" type="line"/>
      <point x="363" y="281" type="line" smooth="yes"/>
      <point x="350" y="268"/>
      <point x="345" y="259"/>
      <point x="345" y="236" type="curve" smooth="yes"/>
      <point x="345" y="95" type="line" smooth="yes"/>
      <point x="345" y="83"/>
      <point x="355" y="73"/>
      <point x="367" y="73" type="curve" smooth="yes"/>
    </contour>
    <contour>
      <point x="78" y="73"/>
      <point x="85" y="73"/>
      <point x="91" y="78" type="curve" smooth="yes"/>
      <point x="308" y="289" type="line" smooth="yes"/>
      <point x="316" y="296"/>
      <point x="322" y="305"/>
      <point x="322" y="317" type="curve" smooth="yes"/>
      <point x="322" y="383" type="line" smooth="yes"/>
      <point x="322" y="395"/>
      <point x="316" y="404"/>
      <point x="308" y="411" type="curve" smooth="yes"/>
      <point x="91" y="622" type="line" smooth="yes"/>
      <point x="85" y="627"/>
      <point x="78" y="627"/>
      <point x="77" y="627" type="curve" smooth="yes"/>
      <point x="65" y="627"/>
      <point x="55" y="617"/>
      <point x="55" y="605" type="curve" smooth="yes"/>
      <point x="55" y="464" type="line" smooth="yes"/>
      <point x="55" y="441"/>
      <point x="60" y="432"/>
      <point x="73" y="419" type="curve" smooth="yes"/>
      <point x="142" y="350" type="line"/>
      <point x="73" y="281" type="line" smooth="yes"/>
      <point x="60" y="268"/>
      <point x="55" y="259"/>
      <point x="55" y="236" type="curve" smooth="yes"/>
      <point x="55" y="95" type="line" smooth="yes"/>
      <point x="55" y="83"/>
      <point x="65" y="73"/>
      <point x="77" y="73" type="curve" smooth="yes"/>
    </contour>
  </outline>
</glyph>
